<?xml version="1.0" encoding="UTF-8" standalone="no"?>
<!DOCTYPE svg PUBLIC "-//W3C//DTD SVG 1.1//EN" "http://www.w3.org/Graphics/SVG/1.1/DTD/svg11.dtd">
<!-- Generated by graphviz version 2.26.3 (20100126.1600)
 -->
<!-- Title: G Pages: 1 -->
<svg xmlns="http://www.w3.org/2000/svg" xmlns:xlink="http://www.w3.org/1999/xlink" width="924pt" height="1104pt">
<g id="viewport" class="graph" transform="scale(1 1) rotate(0) translate(4 1100)">
<title>G</title>
<polygon fill="white" stroke="white" points="-4,5 -4,-1100 921,-1100 921,5 -4,5"/>
<g id="graph2" class="cluster"><title>cluster_DMS</title>
<polyline fill="none" stroke="gray" points="226,-8 896,-8 "/>
<path fill="none" stroke="gray" d="M896,-8C902,-8 908,-14 908,-20"/>
<polyline fill="none" stroke="gray" points="908,-20 908,-1076 "/>
<path fill="none" stroke="gray" d="M908,-1076C908,-1082 902,-1088 896,-1088"/>
<polyline fill="none" stroke="gray" points="896,-1088 226,-1088 "/>
<path fill="none" stroke="gray" d="M226,-1088C220,-1088 214,-1082 214,-1076"/>
<polyline fill="none" stroke="gray" points="214,-1076 214,-20 "/>
<path fill="none" stroke="gray" d="M214,-20C214,-14 220,-8 226,-8"/>
<text text-anchor="middle" x="561" y="-1074.1" font-family="Times,serif" font-size="11.00" fill="gray">DMS</text>
</g>
<g id="graph3" class="cluster"><title>cluster_DMS_Filter</title>
<polyline fill="none" stroke="gray" points="234,-16 888,-16 "/>
<path fill="none" stroke="gray" d="M888,-16C894,-16 900,-22 900,-28"/>
<polyline fill="none" stroke="gray" points="900,-28 900,-1048 "/>
<path fill="none" stroke="gray" d="M900,-1048C900,-1054 894,-1060 888,-1060"/>
<polyline fill="none" stroke="gray" points="888,-1060 234,-1060 "/>
<path fill="none" stroke="gray" d="M234,-1060C228,-1060 222,-1054 222,-1048"/>
<polyline fill="none" stroke="gray" points="222,-1048 222,-28 "/>
<path fill="none" stroke="gray" d="M222,-28C222,-22 228,-16 234,-16"/>
<text text-anchor="middle" x="561" y="-1046.1" font-family="Times,serif" font-size="11.00" fill="gray">Filter</text>
</g>
<g id="graph4" class="cluster"><title>cluster_DMS_Filter_Exception</title>
<polyline fill="none" stroke="gray" points="242,-906 880,-906 "/>
<path fill="none" stroke="gray" d="M880,-906C886,-906 892,-912 892,-918"/>
<polyline fill="none" stroke="gray" points="892,-918 892,-1020 "/>
<path fill="none" stroke="gray" d="M892,-1020C892,-1026 886,-1032 880,-1032"/>
<polyline fill="none" stroke="gray" points="880,-1032 242,-1032 "/>
<path fill="none" stroke="gray" d="M242,-1032C236,-1032 230,-1026 230,-1020"/>
<polyline fill="none" stroke="gray" points="230,-1020 230,-918 "/>
<path fill="none" stroke="gray" d="M230,-918C230,-912 236,-906 242,-906"/>
<text text-anchor="middle" x="561" y="-1018.1" font-family="Times,serif" font-size="11.00" fill="gray">Exception</text>
</g>
<g id="graph5" class="cluster"><title>cluster_DMS_Filter_Mapping</title>
<polyline fill="none" stroke="gray" points="432,-690 870,-690 "/>
<path fill="none" stroke="gray" d="M870,-690C876,-690 882,-696 882,-702"/>
<polyline fill="none" stroke="gray" points="882,-702 882,-886 "/>
<path fill="none" stroke="gray" d="M882,-886C882,-892 876,-898 870,-898"/>
<polyline fill="none" stroke="gray" points="870,-898 432,-898 "/>
<path fill="none" stroke="gray" d="M432,-898C426,-898 420,-892 420,-886"/>
<polyline fill="none" stroke="gray" points="420,-886 420,-702 "/>
<path fill="none" stroke="gray" d="M420,-702C420,-696 426,-690 432,-690"/>
<text text-anchor="middle" x="651" y="-884.1" font-family="Times,serif" font-size="11.00" fill="gray">Mapping</text>
</g>
<g id="graph6" class="cluster"><title>cluster_DMS_Filter_Mapping_Loader</title>
<polyline fill="none" stroke="gray" points="479,-798 857,-798 "/>
<path fill="none" stroke="gray" d="M857,-798C863,-798 869,-804 869,-810"/>
<polyline fill="none" stroke="gray" points="869,-810 869,-858 "/>
<path fill="none" stroke="gray" d="M869,-858C869,-864 863,-870 857,-870"/>
<polyline fill="none" stroke="gray" points="857,-870 479,-870 "/>
<path fill="none" stroke="gray" d="M479,-870C473,-870 467,-864 467,-858"/>
<polyline fill="none" stroke="gray" points="467,-858 467,-810 "/>
<path fill="none" stroke="gray" d="M467,-810C467,-804 473,-798 479,-798"/>
<text text-anchor="middle" x="668" y="-856.1" font-family="Times,serif" font-size="11.00" fill="gray">Loader</text>
</g>
<g id="graph8" class="cluster"><title>cluster_DMS_Filter_Rules</title>
<polyline fill="none" stroke="gray" points="455,-178 846,-178 "/>
<path fill="none" stroke="gray" d="M846,-178C852,-178 858,-184 858,-190"/>
<polyline fill="none" stroke="gray" points="858,-190 858,-670 "/>
<path fill="none" stroke="gray" d="M858,-670C858,-676 852,-682 846,-682"/>
<polyline fill="none" stroke="gray" points="846,-682 455,-682 "/>
<path fill="none" stroke="gray" d="M455,-682C449,-682 443,-676 443,-670"/>
<polyline fill="none" stroke="gray" points="443,-670 443,-190 "/>
<path fill="none" stroke="gray" d="M443,-190C443,-184 449,-178 455,-178"/>
<text text-anchor="middle" x="650.5" y="-668.1" font-family="Times,serif" font-size="11.00" fill="gray">Rules</text>
</g>
<!-- _DMS_Filter_Exception_FilterException -->
<g id="node4" class="node"><title>_DMS_Filter_Exception_FilterException</title>
<a xlink:href="_Exception_FilterException.html" xlink:title="FilterException" target="_parent">
<polygon fill="none" stroke="black" points="356,-977 238,-977 238,-941 356,-941 356,-977"/>
<text text-anchor="middle" x="297" y="-956.1" font-family="Courier New" font-size="11.00">FilterException</text>
</a>
</g>
<!-- _RuntimeException -->
<g id="node39" class="node"><title>_RuntimeException</title>
<ellipse fill="none" stroke="black" cx="83" cy="-959" rx="83.1926" ry="18"/>
<text text-anchor="middle" x="83" y="-953.9" font-family="Times,serif" font-size="14.00" fill="gray">\RuntimeException</text>
</g>
<!-- _DMS_Filter_Exception_FilterException&#45;&gt;_RuntimeException -->
<g id="edge14" class="edge"><title>_DMS_Filter_Exception_FilterException-&gt;_RuntimeException</title>
<path fill="none" stroke="black" d="M237.957,-959C218.926,-959 197.343,-959 176.459,-959"/>
<polygon fill="none" stroke="black" points="176.278,-955.5 166.278,-959 176.278,-962.5 176.278,-955.5"/>
</g>
<!-- _DMS_Filter_Exception_InvalidOptionsException -->
<g id="node5" class="node"><title>_DMS_Filter_Exception_InvalidOptionsException</title>
<a xlink:href="_Exception_InvalidOptionsException.html" xlink:title="InvalidOptionsException" target="_parent">
<polygon fill="none" stroke="black" points="884,-1004 712,-1004 712,-968 884,-968 884,-1004"/>
<text text-anchor="middle" x="798" y="-983.1" font-family="Courier New" font-size="11.00">InvalidOptionsException</text>
</a>
</g>
<!-- _DMS_Filter_Exception_RuleOptionsException -->
<g id="node8" class="node"><title>_DMS_Filter_Exception_RuleOptionsException</title>
<a xlink:href="_Exception_RuleOptionsException.html" xlink:title="RuleOptionsException" target="_parent">
<polygon fill="none" stroke="black" points="610,-1004 458,-1004 458,-968 610,-968 610,-1004"/>
<text text-anchor="middle" x="534" y="-983.1" font-family="Courier New" font-size="11.00">RuleOptionsException</text>
</a>
</g>
<!-- _DMS_Filter_Exception_InvalidOptionsException&#45;&gt;_DMS_Filter_Exception_RuleOptionsException -->
<g id="edge16" class="edge"><title>_DMS_Filter_Exception_InvalidOptionsException-&gt;_DMS_Filter_Exception_RuleOptionsException</title>
<path fill="none" stroke="black" d="M711.922,-986C682.579,-986 649.778,-986 620.409,-986"/>
<polygon fill="none" stroke="black" points="620.176,-982.5 610.176,-986 620.176,-989.5 620.176,-982.5"/>
</g>
<!-- _DMS_Filter_Exception_MissingOptionsException -->
<g id="node6" class="node"><title>_DMS_Filter_Exception_MissingOptionsException</title>
<a xlink:href="_Exception_MissingOptionsException.html" xlink:title="MissingOptionsException" target="_parent">
<polygon fill="none" stroke="black" points="884,-950 712,-950 712,-914 884,-914 884,-950"/>
<text text-anchor="middle" x="798" y="-929.1" font-family="Courier New" font-size="11.00">MissingOptionsException</text>
</a>
</g>
<!-- _DMS_Filter_Exception_MissingOptionsException&#45;&gt;_DMS_Filter_Exception_RuleOptionsException -->
<g id="edge18" class="edge"><title>_DMS_Filter_Exception_MissingOptionsException-&gt;_DMS_Filter_Exception_RuleOptionsException</title>
<path fill="none" stroke="black" d="M711.922,-949.607C682.451,-955.635 649.491,-962.377 620.025,-968.404"/>
<polygon fill="none" stroke="black" points="619.271,-964.986 610.176,-970.419 620.674,-971.844 619.271,-964.986"/>
</g>
<!-- _DMS_Filter_Exception_RuleDefinitionException -->
<g id="node7" class="node"><title>_DMS_Filter_Exception_RuleDefinitionException</title>
<a xlink:href="_Exception_RuleDefinitionException.html" xlink:title="RuleDefinitionException" target="_parent">
<polygon fill="none" stroke="black" points="620,-950 448,-950 448,-914 620,-914 620,-950"/>
<text text-anchor="middle" x="534" y="-929.1" font-family="Courier New" font-size="11.00">RuleDefinitionException</text>
</a>
</g>
<!-- _DMS_Filter_Exception_RuleDefinitionException&#45;&gt;_DMS_Filter_Exception_FilterException -->
<g id="edge20" class="edge"><title>_DMS_Filter_Exception_RuleDefinitionException-&gt;_DMS_Filter_Exception_FilterException</title>
<path fill="none" stroke="black" d="M447.767,-941.824C420.893,-944.886 391.623,-948.22 366.084,-951.13"/>
<polygon fill="none" stroke="black" points="365.664,-947.655 356.125,-952.264 366.457,-954.61 365.664,-947.655"/>
</g>
<!-- _DMS_Filter_Exception_RuleOptionsException&#45;&gt;_DMS_Filter_Exception_FilterException -->
<g id="edge22" class="edge"><title>_DMS_Filter_Exception_RuleOptionsException-&gt;_DMS_Filter_Exception_FilterException</title>
<path fill="none" stroke="black" d="M457.707,-977.308C428.293,-973.957 394.888,-970.152 366.182,-966.882"/>
<polygon fill="none" stroke="black" points="366.571,-963.403 356.239,-965.749 365.779,-970.358 366.571,-963.403"/>
</g>
<!-- _DMS_Filter_Mapping_Loader_AnnotationLoader -->
<g id="node11" class="node"><title>_DMS_Filter_Mapping_Loader_AnnotationLoader</title>
<a xlink:href="_Mapping_Loader_AnnotationLoader.html" xlink:title="AnnotationLoader" target="_parent">
<polygon fill="none" stroke="black" points="860,-842 736,-842 736,-806 860,-806 860,-842"/>
<text text-anchor="middle" x="798" y="-821.1" font-family="Courier New" font-size="11.00">AnnotationLoader</text>
</a>
</g>
<!-- _DMS_Filter_Mapping_Loader_LoaderInterface -->
<g id="node12" class="node"><title>_DMS_Filter_Mapping_Loader_LoaderInterface</title>
<a xlink:href="_Mapping_Loader_LoaderInterface.html" xlink:title="LoaderInterface" target="_parent">
<polygon fill="none" stroke="black" points="593,-842 475,-842 475,-806 593,-806 593,-842"/>
<text text-anchor="middle" x="534" y="-821.1" font-family="Courier New" font-size="11.00">LoaderInterface</text>
</a>
</g>
<!-- _DMS_Filter_Mapping_Loader_AnnotationLoader&#45;&gt;_DMS_Filter_Mapping_Loader_LoaderInterface -->
<g id="edge48" class="edge"><title>_DMS_Filter_Mapping_Loader_AnnotationLoader-&gt;_DMS_Filter_Mapping_Loader_LoaderInterface</title>
<path fill="none" stroke="black" stroke-dasharray="1,5" d="M735.436,-824C695.796,-824 644.478,-824 603.561,-824"/>
<polygon fill="none" stroke="black" points="603.396,-820.5 593.396,-824 603.396,-827.5 603.396,-820.5"/>
</g>
<!-- _DMS_Filter_Mapping_ClassMetadata -->
<g id="node13" class="node"><title>_DMS_Filter_Mapping_ClassMetadata</title>
<a xlink:href="_Mapping_ClassMetadata.html" xlink:title="ClassMetadata" target="_parent">
<polygon fill="none" stroke="black" points="850,-788 746,-788 746,-752 850,-752 850,-788"/>
<text text-anchor="middle" x="798" y="-767.1" font-family="Courier New" font-size="11.00">ClassMetadata</text>
</a>
</g>
<!-- _DMS_Filter_Mapping_ClassMetadataInterface -->
<g id="node16" class="node"><title>_DMS_Filter_Mapping_ClassMetadataInterface</title>
<a xlink:href="_Mapping_ClassMetadataInterface.html" xlink:title="ClassMetadataInterface" target="_parent">
<polygon fill="none" stroke="black" points="616,-788 452,-788 452,-752 616,-752 616,-788"/>
<text text-anchor="middle" x="534" y="-767.1" font-family="Courier New" font-size="11.00">ClassMetadataInterface</text>
</a>
</g>
<!-- _DMS_Filter_Mapping_ClassMetadata&#45;&gt;_DMS_Filter_Mapping_ClassMetadataInterface -->
<g id="edge44" class="edge"><title>_DMS_Filter_Mapping_ClassMetadata-&gt;_DMS_Filter_Mapping_ClassMetadataInterface</title>
<path fill="none" stroke="black" stroke-dasharray="1,5" d="M745.842,-770C711.902,-770 666.683,-770 626.739,-770"/>
<polygon fill="none" stroke="black" points="626.708,-766.5 616.708,-770 626.708,-773.5 626.708,-766.5"/>
</g>
<!-- _DMS_Filter_Mapping_ClassMetadataFactory -->
<g id="node14" class="node"><title>_DMS_Filter_Mapping_ClassMetadataFactory</title>
<a xlink:href="_Mapping_ClassMetadataFactory.html" xlink:title="ClassMetadataFactory" target="_parent">
<polygon fill="none" stroke="black" points="874,-734 722,-734 722,-698 874,-698 874,-734"/>
<text text-anchor="middle" x="798" y="-713.1" font-family="Courier New" font-size="11.00">ClassMetadataFactory</text>
</a>
</g>
<!-- _DMS_Filter_Mapping_ClassMetadataFactoryInterface -->
<g id="node15" class="node"><title>_DMS_Filter_Mapping_ClassMetadataFactoryInterface</title>
<a xlink:href="_Mapping_ClassMetadataFactoryInterface.html" xlink:title="ClassMetadataFactoryInterface" target="_parent">
<polygon fill="none" stroke="black" points="640,-734 428,-734 428,-698 640,-698 640,-734"/>
<text text-anchor="middle" x="534" y="-713.1" font-family="Courier New" font-size="11.00">ClassMetadataFactoryInterface</text>
</a>
</g>
<!-- _DMS_Filter_Mapping_ClassMetadataFactory&#45;&gt;_DMS_Filter_Mapping_ClassMetadataFactoryInterface -->
<g id="edge46" class="edge"><title>_DMS_Filter_Mapping_ClassMetadataFactory-&gt;_DMS_Filter_Mapping_ClassMetadataFactoryInterface</title>
<path fill="none" stroke="black" stroke-dasharray="1,5" d="M721.994,-716C699.736,-716 674.87,-716 650.697,-716"/>
<polygon fill="none" stroke="black" points="650.39,-712.5 640.39,-716 650.39,-719.5 650.39,-712.5"/>
</g>
<!-- _DMS_Filter_Rules_Alnum -->
<g id="node19" class="node"><title>_DMS_Filter_Rules_Alnum</title>
<a xlink:href="_Rules_Alnum.html" xlink:title="Alnum" target="_parent">
<polygon fill="none" stroke="black" points="825,-654 771,-654 771,-618 825,-618 825,-654"/>
<text text-anchor="middle" x="798" y="-633.1" font-family="Courier New" font-size="11.00">Alnum</text>
</a>
</g>
<!-- _DMS_Filter_Rules_Rule -->
<g id="node23" class="node"><title>_DMS_Filter_Rules_Rule</title>
<a xlink:href="_Rules_Rule.html" xlink:title="&lt;I&gt;_DMS_Filter_Rules_Rule&lt;/I&gt;" target="_parent">
<polygon fill="none" stroke="black" points="617,-438 451,-438 451,-402 617,-402 617,-438"/>
<text text-anchor="start" x="459.5" y="-417.933" font-family="Courier New" font-size="11.00">_DMS_Filter_Rules_Rule</text>
</a>
</g>
<!-- _DMS_Filter_Rules_Alnum&#45;&gt;_DMS_Filter_Rules_Rule -->
<g id="edge24" class="edge"><title>_DMS_Filter_Rules_Alnum-&gt;_DMS_Filter_Rules_Rule</title>
<path fill="none" stroke="black" d="M770.914,-631.214C753.179,-627.215 730.034,-620.301 712,-609 642.079,-565.184 581.135,-487.384 552.085,-446.611"/>
<polygon fill="none" stroke="black" points="554.829,-444.429 546.214,-438.262 549.103,-448.455 554.829,-444.429"/>
</g>
<!-- Boolean -->
<g id="node20" class="node"><title>Boolean</title>
<a xlink:href="_Rules_Boolean.html" xlink:title="Boolean" target="_parent">
<polygon fill="none" stroke="black" points="830,-600 766,-600 766,-564 830,-564 830,-600"/>
<text text-anchor="middle" x="798" y="-579.1" font-family="Courier New" font-size="11.00">Boolean</text>
</a>
</g>
<!-- Boolean&#45;&gt;_DMS_Filter_Rules_Rule -->
<g id="edge26" class="edge"><title>Boolean-&gt;_DMS_Filter_Rules_Rule</title>
<path fill="none" stroke="black" d="M765.923,-574.75C749.292,-570.3 728.965,-563.758 712,-555 653.293,-524.694 593.902,-474.946 560.73,-445.049"/>
<polygon fill="none" stroke="black" points="563.023,-442.403 553.272,-438.261 558.312,-447.58 563.023,-442.403"/>
</g>
<!-- Float -->
<g id="node21" class="node"><title>Float</title>
<a xlink:href="_Rules_Float.html" xlink:title="Float" target="_parent">
<polygon fill="none" stroke="black" points="825,-546 771,-546 771,-510 825,-510 825,-546"/>
<text text-anchor="middle" x="798" y="-525.1" font-family="Courier New" font-size="11.00">Float</text>
</a>
</g>
<!-- Float&#45;&gt;_DMS_Filter_Rules_Rule -->
<g id="edge28" class="edge"><title>Float-&gt;_DMS_Filter_Rules_Rule</title>
<path fill="none" stroke="black" d="M770.98,-520.444C753.891,-515.438 731.438,-508.442 712,-501 666.011,-483.394 614.997,-459.737 579.414,-442.538"/>
<polygon fill="none" stroke="black" points="580.783,-439.312 570.259,-438.09 577.724,-445.608 580.783,-439.312"/>
</g>
<!-- Int -->
<g id="node22" class="node"><title>Int</title>
<a xlink:href="_Rules_Int.html" xlink:title="Int" target="_parent">
<polygon fill="none" stroke="black" points="825,-492 771,-492 771,-456 825,-456 825,-492"/>
<text text-anchor="middle" x="798" y="-471.1" font-family="Courier New" font-size="11.00">Int</text>
</a>
</g>
<!-- Int&#45;&gt;_DMS_Filter_Rules_Rule -->
<g id="edge30" class="edge"><title>Int-&gt;_DMS_Filter_Rules_Rule</title>
<path fill="none" stroke="black" d="M770.742,-468.424C737.024,-461.528 677.859,-449.426 627.114,-439.046"/>
<polygon fill="none" stroke="black" points="627.585,-435.57 617.087,-436.995 626.183,-442.428 627.585,-435.57"/>
</g>
<!-- _DMS_Filter_Rules_StripNewlines -->
<g id="node24" class="node"><title>_DMS_Filter_Rules_StripNewlines</title>
<a xlink:href="_Rules_StripNewlines.html" xlink:title="StripNewlines" target="_parent">
<polygon fill="none" stroke="black" points="850,-438 746,-438 746,-402 850,-402 850,-438"/>
<text text-anchor="middle" x="798" y="-417.1" font-family="Courier New" font-size="11.00">StripNewlines</text>
</a>
</g>
<!-- _DMS_Filter_Rules_StripNewlines&#45;&gt;_DMS_Filter_Rules_Rule -->
<g id="edge32" class="edge"><title>_DMS_Filter_Rules_StripNewlines-&gt;_DMS_Filter_Rules_Rule</title>
<path fill="none" stroke="black" d="M745.842,-420C712.041,-420 667.052,-420 627.229,-420"/>
<polygon fill="none" stroke="black" points="627.226,-416.5 617.225,-420 627.225,-423.5 627.226,-416.5"/>
</g>
<!-- _DMS_Filter_Rules_StripTags -->
<g id="node25" class="node"><title>_DMS_Filter_Rules_StripTags</title>
<a xlink:href="_Rules_StripTags.html" xlink:title="StripTags" target="_parent">
<polygon fill="none" stroke="black" points="836,-384 760,-384 760,-348 836,-348 836,-384"/>
<text text-anchor="middle" x="798" y="-363.1" font-family="Courier New" font-size="11.00">StripTags</text>
</a>
</g>
<!-- _DMS_Filter_Rules_StripTags&#45;&gt;_DMS_Filter_Rules_Rule -->
<g id="edge34" class="edge"><title>_DMS_Filter_Rules_StripTags-&gt;_DMS_Filter_Rules_Rule</title>
<path fill="none" stroke="black" d="M759.329,-373.91C724.704,-380.992 672.539,-391.663 627.117,-400.953"/>
<polygon fill="none" stroke="black" points="626.333,-397.541 617.237,-402.974 627.736,-404.399 626.333,-397.541"/>
</g>
<!-- _DMS_Filter_Rules_ToLower -->
<g id="node26" class="node"><title>_DMS_Filter_Rules_ToLower</title>
<a xlink:href="_Rules_ToLower.html" xlink:title="ToLower" target="_parent">
<polygon fill="none" stroke="black" points="830,-330 766,-330 766,-294 830,-294 830,-330"/>
<text text-anchor="middle" x="798" y="-309.1" font-family="Courier New" font-size="11.00">ToLower</text>
</a>
</g>
<!-- _DMS_Filter_Rules_ToLower&#45;&gt;_DMS_Filter_Rules_Rule -->
<g id="edge36" class="edge"><title>_DMS_Filter_Rules_ToLower-&gt;_DMS_Filter_Rules_Rule</title>
<path fill="none" stroke="black" d="M765.785,-318.989C749.116,-323.368 728.797,-329.925 712,-339 675.601,-358.665 677.332,-380.17 640,-398 635.72,-400.044 631.254,-401.899 626.68,-403.582"/>
<polygon fill="none" stroke="black" points="625.516,-400.281 617.165,-406.801 627.76,-406.911 625.516,-400.281"/>
</g>
<!-- _DMS_Filter_Rules_ToUpper -->
<g id="node27" class="node"><title>_DMS_Filter_Rules_ToUpper</title>
<a xlink:href="_Rules_ToUpper.html" xlink:title="ToUpper" target="_parent">
<polygon fill="none" stroke="black" points="830,-276 766,-276 766,-240 830,-240 830,-276"/>
<text text-anchor="middle" x="798" y="-255.1" font-family="Courier New" font-size="11.00">ToUpper</text>
</a>
</g>
<!-- _DMS_Filter_Rules_ToUpper&#45;&gt;_DMS_Filter_Rules_Rule -->
<g id="edge38" class="edge"><title>_DMS_Filter_Rules_ToUpper-&gt;_DMS_Filter_Rules_Rule</title>
<path fill="none" stroke="black" d="M765.686,-262.628C748.395,-266.386 727.527,-273.102 712,-285 664.732,-321.222 689.012,-364.176 640,-398 635.758,-400.927 631.209,-403.48 626.467,-405.705"/>
<polygon fill="none" stroke="black" points="625.024,-402.514 617.139,-409.591 627.716,-408.976 625.024,-402.514"/>
</g>
<!-- _DMS_Filter_Rules_Trim -->
<g id="node28" class="node"><title>_DMS_Filter_Rules_Trim</title>
<a xlink:href="_Rules_Trim.html" xlink:title="Trim" target="_parent">
<polygon fill="none" stroke="black" points="825,-222 771,-222 771,-186 825,-186 825,-222"/>
<text text-anchor="middle" x="798" y="-201.1" font-family="Courier New" font-size="11.00">Trim</text>
</a>
</g>
<!-- _DMS_Filter_Rules_Trim&#45;&gt;_DMS_Filter_Rules_Rule -->
<g id="edge40" class="edge"><title>_DMS_Filter_Rules_Trim-&gt;_DMS_Filter_Rules_Rule</title>
<path fill="none" stroke="black" d="M770.65,-206.634C752.118,-209.722 728.151,-216.43 712,-231 651.985,-285.14 702.635,-346.914 640,-398 635.873,-401.366 631.361,-404.257 626.599,-406.735"/>
<polygon fill="none" stroke="black" points="624.833,-403.694 617.171,-411.012 627.724,-410.068 624.833,-403.694"/>
</g>
<!-- _DMS_Filter_Filter -->
<g id="node29" class="node"><title>_DMS_Filter_Filter</title>
<a xlink:href="_Filter.html" xlink:title="Filter" target="_parent">
<polygon fill="none" stroke="black" points="826,-168 770,-168 770,-132 826,-132 826,-168"/>
<text text-anchor="middle" x="798" y="-147.1" font-family="Courier New" font-size="11.00">Filter</text>
</a>
</g>
<!-- _DMS_Filter_FilterInterface -->
<g id="node30" class="node"><title>_DMS_Filter_FilterInterface</title>
<a xlink:href="_FilterInterface.html" xlink:title="FilterInterface" target="_parent">
<polygon fill="none" stroke="black" points="593,-168 475,-168 475,-132 593,-132 593,-168"/>
<text text-anchor="middle" x="534" y="-147.1" font-family="Courier New" font-size="11.00">FilterInterface</text>
</a>
</g>
<!-- _DMS_Filter_Filter&#45;&gt;_DMS_Filter_FilterInterface -->
<g id="edge42" class="edge"><title>_DMS_Filter_Filter-&gt;_DMS_Filter_FilterInterface</title>
<path fill="none" stroke="black" stroke-dasharray="1,5" d="M769.497,-150C730.041,-150 657.523,-150 603.343,-150"/>
<polygon fill="none" stroke="black" points="603.11,-146.5 593.11,-150 603.11,-153.5 603.11,-146.5"/>
</g>
<!-- _DMS_Filter_ObjectWalker -->
<g id="node31" class="node"><title>_DMS_Filter_ObjectWalker</title>
<a xlink:href="_ObjectWalker.html" xlink:title="ObjectWalker" target="_parent">
<polygon fill="none" stroke="black" points="847,-114 749,-114 749,-78 847,-78 847,-114"/>
<text text-anchor="middle" x="798" y="-93.1" font-family="Courier New" font-size="11.00">ObjectWalker</text>
</a>
</g>
<!-- _DMS_Filter_Version -->
<g id="node32" class="node"><title>_DMS_Filter_Version</title>
<a xlink:href="_Version.html" xlink:title="Version" target="_parent">
<polygon fill="none" stroke="black" points="830,-60 766,-60 766,-24 830,-24 830,-60"/>
<text text-anchor="middle" x="798" y="-39.1" font-family="Courier New" font-size="11.00">Version</text>
</a>
</g>
</g>
<script xlink:href="js/SVGPan.js"/></svg>
