<?xml version="1.0" encoding="UTF-8" standalone="no"?>
<!DOCTYPE svg PUBLIC "-//W3C//DTD SVG 1.1//EN"
 "http://www.w3.org/Graphics/SVG/1.1/DTD/svg11.dtd">
<!-- Generated by graphviz version 2.28.0 (20111229.1139)
 -->
<!-- Title: G Pages: 1 -->
<svg width="1236pt" height="1760pt"
 viewBox="0.00 0.00 1236.00 1760.00" xmlns="http://www.w3.org/2000/svg" xmlns:xlink="http://www.w3.org/1999/xlink">
<g id="graph1" class="graph" transform="scale(1 1) rotate(0) translate(4 1756)">
<title>G</title>
<polygon fill="white" stroke="white" points="-4,5 -4,-1756 1233,-1756 1233,5 -4,5"/>
<g id="graph2" class="cluster"><title>cluster_DMS</title>
<polyline fill="none" stroke="gray" points="228,-206 1208,-206 "/>
<path fill="none" stroke="gray" d="M1208,-206C1214,-206 1220,-212 1220,-218"/>
<polyline fill="none" stroke="gray" points="1220,-218 1220,-1732 "/>
<path fill="none" stroke="gray" d="M1220,-1732C1220,-1738 1214,-1744 1208,-1744"/>
<polyline fill="none" stroke="gray" points="1208,-1744 228,-1744 "/>
<path fill="none" stroke="gray" d="M228,-1744C222,-1744 216,-1738 216,-1732"/>
<polyline fill="none" stroke="gray" points="216,-1732 216,-218 "/>
<path fill="none" stroke="gray" d="M216,-218C216,-212 222,-206 228,-206"/>
<text text-anchor="middle" x="718" y="-1730.1" font-family="Times,serif" font-size="11.00" fill="gray">DMS</text>
</g>
<g id="graph3" class="cluster"><title>cluster_DMS\Bundles</title>
<polyline fill="none" stroke="gray" points="1029,-214 1191,-214 "/>
<path fill="none" stroke="gray" d="M1191,-214C1197,-214 1203,-220 1203,-226"/>
<polyline fill="none" stroke="gray" points="1203,-226 1203,-646 "/>
<path fill="none" stroke="gray" d="M1203,-646C1203,-652 1197,-658 1191,-658"/>
<polyline fill="none" stroke="gray" points="1191,-658 1029,-658 "/>
<path fill="none" stroke="gray" d="M1029,-658C1023,-658 1017,-652 1017,-646"/>
<polyline fill="none" stroke="gray" points="1017,-646 1017,-226 "/>
<path fill="none" stroke="gray" d="M1017,-226C1017,-220 1023,-214 1029,-214"/>
<text text-anchor="middle" x="1110" y="-644.1" font-family="Times,serif" font-size="11.00" fill="gray">Bundles</text>
</g>
<g id="graph4" class="cluster"><title>cluster_DMS\Bundles\FilterBundle</title>
<polyline fill="none" stroke="gray" points="1037,-222 1183,-222 "/>
<path fill="none" stroke="gray" d="M1183,-222C1189,-222 1195,-228 1195,-234"/>
<polyline fill="none" stroke="gray" points="1195,-234 1195,-617 "/>
<path fill="none" stroke="gray" d="M1195,-617C1195,-623 1189,-629 1183,-629"/>
<polyline fill="none" stroke="gray" points="1183,-629 1037,-629 "/>
<path fill="none" stroke="gray" d="M1037,-629C1031,-629 1025,-623 1025,-617"/>
<polyline fill="none" stroke="gray" points="1025,-617 1025,-234 "/>
<path fill="none" stroke="gray" d="M1025,-234C1025,-228 1031,-222 1037,-222"/>
<text text-anchor="middle" x="1110" y="-615.1" font-family="Times,serif" font-size="11.00" fill="gray">FilterBundle</text>
</g>
<g id="graph5" class="cluster"><title>cluster_DMS\Bundles\FilterBundle\DependencyInjection</title>
<polyline fill="none" stroke="gray" points="1045,-473 1175,-473 "/>
<path fill="none" stroke="gray" d="M1175,-473C1181,-473 1187,-479 1187,-485"/>
<polyline fill="none" stroke="gray" points="1187,-485 1187,-588 "/>
<path fill="none" stroke="gray" d="M1187,-588C1187,-594 1181,-600 1175,-600"/>
<polyline fill="none" stroke="gray" points="1175,-600 1045,-600 "/>
<path fill="none" stroke="gray" d="M1045,-600C1039,-600 1033,-594 1033,-588"/>
<polyline fill="none" stroke="gray" points="1033,-588 1033,-485 "/>
<path fill="none" stroke="gray" d="M1033,-485C1033,-479 1039,-473 1045,-473"/>
<text text-anchor="middle" x="1110" y="-586.1" font-family="Times,serif" font-size="11.00" fill="gray">DependencyInjection</text>
</g>
<g id="graph6" class="cluster"><title>cluster_DMS\Bundles\FilterBundle\Service</title>
<polyline fill="none" stroke="gray" points="1085,-392 1135,-392 "/>
<path fill="none" stroke="gray" d="M1135,-392C1141,-392 1147,-398 1147,-404"/>
<polyline fill="none" stroke="gray" points="1147,-404 1147,-453 "/>
<path fill="none" stroke="gray" d="M1147,-453C1147,-459 1141,-465 1135,-465"/>
<polyline fill="none" stroke="gray" points="1135,-465 1085,-465 "/>
<path fill="none" stroke="gray" d="M1085,-465C1079,-465 1073,-459 1073,-453"/>
<polyline fill="none" stroke="gray" points="1073,-453 1073,-404 "/>
<path fill="none" stroke="gray" d="M1073,-404C1073,-398 1079,-392 1085,-392"/>
<text text-anchor="middle" x="1110" y="-451.1" font-family="Times,serif" font-size="11.00" fill="gray">Service</text>
</g>
<g id="graph7" class="cluster"><title>cluster_DMS\Bundles\FilterBundle\Tests</title>
<polyline fill="none" stroke="gray" points="1064,-274 1156,-274 "/>
<path fill="none" stroke="gray" d="M1156,-274C1162,-274 1168,-280 1168,-286"/>
<polyline fill="none" stroke="gray" points="1168,-286 1168,-372 "/>
<path fill="none" stroke="gray" d="M1168,-372C1168,-378 1162,-384 1156,-384"/>
<polyline fill="none" stroke="gray" points="1156,-384 1064,-384 "/>
<path fill="none" stroke="gray" d="M1064,-384C1058,-384 1052,-378 1052,-372"/>
<polyline fill="none" stroke="gray" points="1052,-372 1052,-286 "/>
<path fill="none" stroke="gray" d="M1052,-286C1052,-280 1058,-274 1064,-274"/>
<text text-anchor="middle" x="1110" y="-370.1" font-family="Times,serif" font-size="11.00" fill="gray">Tests</text>
</g>
<g id="graph8" class="cluster"><title>cluster_DMS\Bundles\FilterBundle\Tests\Service</title>
<polyline fill="none" stroke="gray" points="1072,-282 1148,-282 "/>
<path fill="none" stroke="gray" d="M1148,-282C1154,-282 1160,-288 1160,-294"/>
<polyline fill="none" stroke="gray" points="1160,-294 1160,-343 "/>
<path fill="none" stroke="gray" d="M1160,-343C1160,-349 1154,-355 1148,-355"/>
<polyline fill="none" stroke="gray" points="1148,-355 1072,-355 "/>
<path fill="none" stroke="gray" d="M1072,-355C1066,-355 1060,-349 1060,-343"/>
<polyline fill="none" stroke="gray" points="1060,-343 1060,-294 "/>
<path fill="none" stroke="gray" d="M1060,-294C1060,-288 1066,-282 1072,-282"/>
<text text-anchor="middle" x="1110" y="-341.1" font-family="Times,serif" font-size="11.00" fill="gray">Service</text>
</g>
<g id="graph22" class="cluster"><title>cluster_DMS\Filter</title>
<polyline fill="none" stroke="gray" points="236,-666 1200,-666 "/>
<path fill="none" stroke="gray" d="M1200,-666C1206,-666 1212,-672 1212,-678"/>
<polyline fill="none" stroke="gray" points="1212,-678 1212,-1703 "/>
<path fill="none" stroke="gray" d="M1212,-1703C1212,-1709 1206,-1715 1200,-1715"/>
<polyline fill="none" stroke="gray" points="1200,-1715 236,-1715 "/>
<path fill="none" stroke="gray" d="M236,-1715C230,-1715 224,-1709 224,-1703"/>
<polyline fill="none" stroke="gray" points="224,-1703 224,-678 "/>
<path fill="none" stroke="gray" d="M224,-678C224,-672 230,-666 236,-666"/>
<text text-anchor="middle" x="718" y="-1701.1" font-family="Times,serif" font-size="11.00" fill="gray">Filter</text>
</g>
<g id="graph23" class="cluster"><title>cluster_DMS\Filter\Exception</title>
<polyline fill="none" stroke="gray" points="244,-1559 1192,-1559 "/>
<path fill="none" stroke="gray" d="M1192,-1559C1198,-1559 1204,-1565 1204,-1571"/>
<polyline fill="none" stroke="gray" points="1204,-1571 1204,-1674 "/>
<path fill="none" stroke="gray" d="M1204,-1674C1204,-1680 1198,-1686 1192,-1686"/>
<polyline fill="none" stroke="gray" points="1192,-1686 244,-1686 "/>
<path fill="none" stroke="gray" d="M244,-1686C238,-1686 232,-1680 232,-1674"/>
<polyline fill="none" stroke="gray" points="232,-1674 232,-1571 "/>
<path fill="none" stroke="gray" d="M232,-1571C232,-1565 238,-1559 244,-1559"/>
<text text-anchor="middle" x="718" y="-1672.1" font-family="Times,serif" font-size="11.00" fill="gray">Exception</text>
</g>
<g id="graph24" class="cluster"><title>cluster_DMS\Filter\Mapping</title>
<polyline fill="none" stroke="gray" points="589,-1341 1182,-1341 "/>
<path fill="none" stroke="gray" d="M1182,-1341C1188,-1341 1194,-1347 1194,-1353"/>
<polyline fill="none" stroke="gray" points="1194,-1353 1194,-1539 "/>
<path fill="none" stroke="gray" d="M1194,-1539C1194,-1545 1188,-1551 1182,-1551"/>
<polyline fill="none" stroke="gray" points="1182,-1551 589,-1551 "/>
<path fill="none" stroke="gray" d="M589,-1551C583,-1551 577,-1545 577,-1539"/>
<polyline fill="none" stroke="gray" points="577,-1539 577,-1353 "/>
<path fill="none" stroke="gray" d="M577,-1353C577,-1347 583,-1341 589,-1341"/>
<text text-anchor="middle" x="885.5" y="-1537.1" font-family="Times,serif" font-size="11.00" fill="gray">Mapping</text>
</g>
<g id="graph25" class="cluster"><title>cluster_DMS\Filter\Mapping\Loader</title>
<polyline fill="none" stroke="gray" points="636,-1449 1169,-1449 "/>
<path fill="none" stroke="gray" d="M1169,-1449C1175,-1449 1181,-1455 1181,-1461"/>
<polyline fill="none" stroke="gray" points="1181,-1461 1181,-1510 "/>
<path fill="none" stroke="gray" d="M1181,-1510C1181,-1516 1175,-1522 1169,-1522"/>
<polyline fill="none" stroke="gray" points="1169,-1522 636,-1522 "/>
<path fill="none" stroke="gray" d="M636,-1522C630,-1522 624,-1516 624,-1510"/>
<polyline fill="none" stroke="gray" points="624,-1510 624,-1461 "/>
<path fill="none" stroke="gray" d="M624,-1461C624,-1455 630,-1449 636,-1449"/>
<text text-anchor="middle" x="902.5" y="-1508.1" font-family="Times,serif" font-size="11.00" fill="gray">Loader</text>
</g>
<g id="graph27" class="cluster"><title>cluster_DMS\Filter\Rules</title>
<polyline fill="none" stroke="gray" points="652,-828 1158,-828 "/>
<path fill="none" stroke="gray" d="M1158,-828C1164,-828 1170,-834 1170,-840"/>
<polyline fill="none" stroke="gray" points="1170,-840 1170,-1321 "/>
<path fill="none" stroke="gray" d="M1170,-1321C1170,-1327 1164,-1333 1158,-1333"/>
<polyline fill="none" stroke="gray" points="1158,-1333 652,-1333 "/>
<path fill="none" stroke="gray" d="M652,-1333C646,-1333 640,-1327 640,-1321"/>
<polyline fill="none" stroke="gray" points="640,-1321 640,-840 "/>
<path fill="none" stroke="gray" d="M640,-840C640,-834 646,-828 652,-828"/>
<text text-anchor="middle" x="905" y="-1319.1" font-family="Times,serif" font-size="11.00" fill="gray">Rules</text>
</g>
<!-- \\DMS\\Bundles\\FilterBundle\\DependencyInjection\\Configuration -->
<g id="node5" class="node"><title>\\DMS\\Bundles\\FilterBundle\\DependencyInjection\\Configuration</title>
<a xlink:href="db_DMS_Bundles_FilterBundle_DependencyInjection_Configuration.html" xlink:title="Configuration" target="_parent">
<polygon fill="none" stroke="black" points="1162,-571 1058,-571 1058,-535 1162,-535 1162,-571"/>
<text text-anchor="middle" x="1110" y="-549.6" font-family="Courier,monospace" font-size="11.00">Configuration</text>
</a>
</g>
<!-- \\Symfony\\Component\\Config\\Definition\\ConfigurationInterface -->
<g id="node84" class="node"><title>\\Symfony\\Component\\Config\\Definition\\ConfigurationInterface</title>
<ellipse fill="none" stroke="black" cx="691" cy="-180" rx="260.898" ry="18"/>
<text text-anchor="middle" x="691" y="-175.4" font-family="Times,serif" font-size="14.00" fill="gray">\\Symfony\\Component\\Config\\Definition\\ConfigurationInterface</text>
</g>
<!-- \\DMS\\Bundles\\FilterBundle\\DependencyInjection\\Configuration&#45;&gt;\\Symfony\\Component\\Config\\Definition\\ConfigurationInterface -->
<g id="edge67" class="edge"><title>\\DMS\\Bundles\\FilterBundle\\DependencyInjection\\Configuration&#45;&gt;\\Symfony\\Component\\Config\\Definition\\ConfigurationInterface</title>
<path fill="none" stroke="black" stroke-dasharray="1,5" d="M1057.79,-543.149C1043.92,-539.13 1029.34,-533.583 1017,-526 874.164,-438.216 753.109,-271.457 709.416,-206.672"/>
<polygon fill="none" stroke="black" points="712.237,-204.595 703.77,-198.227 706.417,-208.485 712.237,-204.595"/>
</g>
<!-- \\DMS\\Bundles\\FilterBundle\\DependencyInjection\\DMSFilterExtension -->
<g id="node6" class="node"><title>\\DMS\\Bundles\\FilterBundle\\DependencyInjection\\DMSFilterExtension</title>
<a xlink:href="db_DMS_Bundles_FilterBundle_DependencyInjection_DMSFilterExtension.html" xlink:title="DMSFilterExtension" target="_parent">
<polygon fill="none" stroke="black" points="1179,-517 1041,-517 1041,-481 1179,-481 1179,-517"/>
<text text-anchor="middle" x="1110" y="-495.6" font-family="Courier,monospace" font-size="11.00">DMSFilterExtension</text>
</a>
</g>
<!-- \\Symfony\\Component\\HttpKernel\\DependencyInjection\\Extension -->
<g id="node63" class="node"><title>\\Symfony\\Component\\HttpKernel\\DependencyInjection\\Extension</title>
<ellipse fill="none" stroke="black" cx="691" cy="-126" rx="260.057" ry="18"/>
<text text-anchor="middle" x="691" y="-121.4" font-family="Times,serif" font-size="14.00" fill="gray">\Symfony\Component\HttpKernel\DependencyInjection\Extension</text>
</g>
<!-- \\DMS\\Bundles\\FilterBundle\\DependencyInjection\\DMSFilterExtension&#45;&gt;\\Symfony\\Component\\HttpKernel\\DependencyInjection\\Extension -->
<g id="edge33" class="edge"><title>\\DMS\\Bundles\\FilterBundle\\DependencyInjection\\DMSFilterExtension&#45;&gt;\\Symfony\\Component\\HttpKernel\\DependencyInjection\\Extension</title>
<path fill="none" stroke="black" d="M1040.68,-485.962C1031.77,-481.78 1023.49,-476.266 1017,-469 921.464,-362.079 1058.3,-249.227 952,-153 946.333,-147.87 940.286,-143.298 933.934,-139.233"/>
<polygon fill="none" stroke="black" points="935.479,-136.08 925.09,-134 931.914,-142.105 935.479,-136.08"/>
</g>
<!-- \\DMS\\Bundles\\FilterBundle\\Service\\Filter -->
<g id="node8" class="node"><title>\\DMS\\Bundles\\FilterBundle\\Service\\Filter</title>
<a xlink:href="db_DMS_Bundles_FilterBundle_Service_Filter.html" xlink:title="Filter" target="_parent">
<polygon fill="none" stroke="black" points="1138.5,-436 1081.5,-436 1081.5,-400 1138.5,-400 1138.5,-436"/>
<text text-anchor="middle" x="1110" y="-414.6" font-family="Courier,monospace" font-size="11.00">Filter</text>
</a>
</g>
<!-- \\DMS\\Bundles\\FilterBundle\\Tests\\Service\\FilterTest -->
<g id="node11" class="node"><title>\\DMS\\Bundles\\FilterBundle\\Tests\\Service\\FilterTest</title>
<a xlink:href="db_DMS_Bundles_FilterBundle_Tests_Service_FilterTest.html" xlink:title="FilterTest" target="_parent">
<polygon fill="none" stroke="black" points="1152,-326 1068,-326 1068,-290 1152,-290 1152,-326"/>
<text text-anchor="middle" x="1110" y="-304.6" font-family="Courier,monospace" font-size="11.00">FilterTest</text>
</a>
</g>
<!-- \\Symfony\\Bundle\\FrameworkBundle\\Test\\WebTestCase -->
<g id="node67" class="node"><title>\\Symfony\\Bundle\\FrameworkBundle\\Test\\WebTestCase</title>
<ellipse fill="none" stroke="black" cx="691" cy="-72" rx="222.925" ry="18"/>
<text text-anchor="middle" x="691" y="-67.4" font-family="Times,serif" font-size="14.00" fill="gray">\Symfony\Bundle\FrameworkBundle\Test\WebTestCase</text>
</g>
<!-- \\DMS\\Bundles\\FilterBundle\\Tests\\Service\\FilterTest&#45;&gt;\\Symfony\\Bundle\\FrameworkBundle\\Test\\WebTestCase -->
<g id="edge37" class="edge"><title>\\DMS\\Bundles\\FilterBundle\\Tests\\Service\\FilterTest&#45;&gt;\\Symfony\\Bundle\\FrameworkBundle\\Test\\WebTestCase</title>
<path fill="none" stroke="black" d="M1067.83,-306.731C1050.3,-304.197 1030.76,-298.451 1017,-286 951.756,-226.964 1020.97,-153.631 952,-99 942.035,-91.1072 931.138,-84.6184 919.631,-79.3209"/>
<polygon fill="none" stroke="black" points="920.85,-76.0356 910.279,-75.3237 918.099,-82.4723 920.85,-76.0356"/>
</g>
<!-- \\DMS\\Bundles\\FilterBundle\\DMSFilterBundle -->
<g id="node12" class="node"><title>\\DMS\\Bundles\\FilterBundle\\DMSFilterBundle</title>
<a xlink:href="db_DMS_Bundles_FilterBundle_DMSFilterBundle.html" xlink:title="DMSFilterBundle" target="_parent">
<polygon fill="none" stroke="black" points="1168.5,-266 1051.5,-266 1051.5,-230 1168.5,-230 1168.5,-266"/>
<text text-anchor="middle" x="1110" y="-244.6" font-family="Courier,monospace" font-size="11.00">DMSFilterBundle</text>
</a>
</g>
<!-- \\Symfony\\Component\\HttpKernel\\Bundle\\Bundle -->
<g id="node65" class="node"><title>\\Symfony\\Component\\HttpKernel\\Bundle\\Bundle</title>
<ellipse fill="none" stroke="black" cx="691" cy="-18" rx="197.443" ry="18"/>
<text text-anchor="middle" x="691" y="-13.4" font-family="Times,serif" font-size="14.00" fill="gray">\Symfony\Component\HttpKernel\Bundle\Bundle</text>
</g>
<!-- \\DMS\\Bundles\\FilterBundle\\DMSFilterBundle&#45;&gt;\\Symfony\\Component\\HttpKernel\\Bundle\\Bundle -->
<g id="edge35" class="edge"><title>\\DMS\\Bundles\\FilterBundle\\DMSFilterBundle&#45;&gt;\\Symfony\\Component\\HttpKernel\\Bundle\\Bundle</title>
<path fill="none" stroke="black" d="M1101.21,-229.948C1082.41,-188.861 1030.24,-88.5596 952,-45 934.701,-35.3692 915.746,-28.2369 896.203,-23.0312"/>
<polygon fill="none" stroke="black" points="896.802,-19.5735 886.252,-20.5549 895.111,-26.3663 896.802,-19.5735"/>
</g>
<!-- \\DMS\\Filter\\Exception\\FilterException -->
<g id="node28" class="node"><title>\\DMS\\Filter\\Exception\\FilterException</title>
<a xlink:href="db_DMS_Filter_Exception_FilterException.html" xlink:title="FilterException" target="_parent">
<polygon fill="none" stroke="black" points="357.5,-1630 240.5,-1630 240.5,-1594 357.5,-1594 357.5,-1630"/>
<text text-anchor="middle" x="299" y="-1608.6" font-family="Courier,monospace" font-size="11.00">FilterException</text>
</a>
</g>
<!-- \\RuntimeException -->
<g id="node69" class="node"><title>\\RuntimeException</title>
<ellipse fill="none" stroke="black" cx="84" cy="-1612" rx="83.7054" ry="18"/>
<text text-anchor="middle" x="84" y="-1607.4" font-family="Times,serif" font-size="14.00" fill="gray">\RuntimeException</text>
</g>
<!-- \\DMS\\Filter\\Exception\\FilterException&#45;&gt;\\RuntimeException -->
<g id="edge39" class="edge"><title>\\DMS\\Filter\\Exception\\FilterException&#45;&gt;\\RuntimeException</title>
<path fill="none" stroke="black" d="M240.359,-1612C221.108,-1612 199.137,-1612 177.9,-1612"/>
<polygon fill="none" stroke="black" points="177.879,-1608.5 167.879,-1612 177.879,-1615.5 177.879,-1608.5"/>
</g>
<!-- \\DMS\\Filter\\Exception\\InvalidOptionsException -->
<g id="node29" class="node"><title>\\DMS\\Filter\\Exception\\InvalidOptionsException</title>
<a xlink:href="db_DMS_Filter_Exception_InvalidOptionsException.html" xlink:title="InvalidOptionsException" target="_parent">
<polygon fill="none" stroke="black" points="1195.5,-1657 1024.5,-1657 1024.5,-1621 1195.5,-1621 1195.5,-1657"/>
<text text-anchor="middle" x="1110" y="-1635.6" font-family="Courier,monospace" font-size="11.00">InvalidOptionsException</text>
</a>
</g>
<!-- \\DMS\\Filter\\Exception\\RuleOptionsException -->
<g id="node32" class="node"><title>\\DMS\\Filter\\Exception\\RuleOptionsException</title>
<a xlink:href="db_DMS_Filter_Exception_RuleOptionsException.html" xlink:title="RuleOptionsException" target="_parent">
<polygon fill="none" stroke="black" points="766.5,-1657 615.5,-1657 615.5,-1621 766.5,-1621 766.5,-1657"/>
<text text-anchor="middle" x="691" y="-1635.6" font-family="Courier,monospace" font-size="11.00">RuleOptionsException</text>
</a>
</g>
<!-- \\DMS\\Filter\\Exception\\InvalidOptionsException&#45;&gt;\\DMS\\Filter\\Exception\\RuleOptionsException -->
<g id="edge41" class="edge"><title>\\DMS\\Filter\\Exception\\InvalidOptionsException&#45;&gt;\\DMS\\Filter\\Exception\\RuleOptionsException</title>
<path fill="none" stroke="black" d="M1024.36,-1639C952.322,-1639 849.333,-1639 777.146,-1639"/>
<polygon fill="none" stroke="black" points="776.727,-1635.5 766.727,-1639 776.727,-1642.5 776.727,-1635.5"/>
</g>
<!-- \\DMS\\Filter\\Exception\\MissingOptionsException -->
<g id="node30" class="node"><title>\\DMS\\Filter\\Exception\\MissingOptionsException</title>
<a xlink:href="db_DMS_Filter_Exception_MissingOptionsException.html" xlink:title="MissingOptionsException" target="_parent">
<polygon fill="none" stroke="black" points="1196,-1603 1024,-1603 1024,-1567 1196,-1567 1196,-1603"/>
<text text-anchor="middle" x="1110" y="-1581.6" font-family="Courier,monospace" font-size="11.00">MissingOptionsException</text>
</a>
</g>
<!-- \\DMS\\Filter\\Exception\\MissingOptionsException&#45;&gt;\\DMS\\Filter\\Exception\\RuleOptionsException -->
<g id="edge43" class="edge"><title>\\DMS\\Filter\\Exception\\MissingOptionsException&#45;&gt;\\DMS\\Filter\\Exception\\RuleOptionsException</title>
<path fill="none" stroke="black" d="M1023.6,-1600.75C1000.42,-1604.74 975.289,-1608.79 952,-1612 893.626,-1620.04 827.581,-1626.87 776.663,-1631.65"/>
<polygon fill="none" stroke="black" points="776.321,-1628.17 766.688,-1632.58 776.969,-1635.14 776.321,-1628.17"/>
</g>
<!-- \\DMS\\Filter\\Exception\\RuleDefinitionException -->
<g id="node31" class="node"><title>\\DMS\\Filter\\Exception\\RuleDefinitionException</title>
<a xlink:href="db_DMS_Filter_Exception_RuleDefinitionException.html" xlink:title="RuleDefinitionException" target="_parent">
<polygon fill="none" stroke="black" points="776.5,-1603 605.5,-1603 605.5,-1567 776.5,-1567 776.5,-1603"/>
<text text-anchor="middle" x="691" y="-1581.6" font-family="Courier,monospace" font-size="11.00">RuleDefinitionException</text>
</a>
</g>
<!-- \\DMS\\Filter\\Exception\\RuleDefinitionException&#45;&gt;\\DMS\\Filter\\Exception\\FilterException -->
<g id="edge45" class="edge"><title>\\DMS\\Filter\\Exception\\RuleDefinitionException&#45;&gt;\\DMS\\Filter\\Exception\\FilterException</title>
<path fill="none" stroke="black" d="M605.376,-1590.86C534.244,-1595.78 433.895,-1602.73 367.923,-1607.3"/>
<polygon fill="none" stroke="black" points="367.374,-1603.83 357.639,-1608.01 367.857,-1610.81 367.374,-1603.83"/>
</g>
<!-- \\DMS\\Filter\\Exception\\RuleOptionsException&#45;&gt;\\DMS\\Filter\\Exception\\FilterException -->
<g id="edge47" class="edge"><title>\\DMS\\Filter\\Exception\\RuleOptionsException&#45;&gt;\\DMS\\Filter\\Exception\\FilterException</title>
<path fill="none" stroke="black" d="M615.266,-1633.83C543.842,-1628.88 437.103,-1621.49 368.008,-1616.71"/>
<polygon fill="none" stroke="black" points="367.892,-1613.19 357.674,-1615.99 367.408,-1620.18 367.892,-1613.19"/>
</g>
<!-- \\DMS\\Filter\\Mapping\\Loader\\AnnotationLoader -->
<g id="node35" class="node"><title>\\DMS\\Filter\\Mapping\\Loader\\AnnotationLoader</title>
<a xlink:href="db_DMS_Filter_Mapping_Loader_AnnotationLoader.html" xlink:title="AnnotationLoader" target="_parent">
<polygon fill="none" stroke="black" points="1172.5,-1493 1047.5,-1493 1047.5,-1457 1172.5,-1457 1172.5,-1493"/>
<text text-anchor="middle" x="1110" y="-1471.6" font-family="Courier,monospace" font-size="11.00">AnnotationLoader</text>
</a>
</g>
<!-- \\DMS\\Filter\\Mapping\\Loader\\LoaderInterface -->
<g id="node36" class="node"><title>\\DMS\\Filter\\Mapping\\Loader\\LoaderInterface</title>
<a xlink:href="db_DMS_Filter_Mapping_Loader_LoaderInterface.html" xlink:title="LoaderInterface" target="_parent">
<polygon fill="none" stroke="black" points="749.5,-1493 632.5,-1493 632.5,-1457 749.5,-1457 749.5,-1493"/>
<text text-anchor="middle" x="691" y="-1471.6" font-family="Courier,monospace" font-size="11.00">LoaderInterface</text>
</a>
</g>
<!-- \\DMS\\Filter\\Mapping\\Loader\\AnnotationLoader&#45;&gt;\\DMS\\Filter\\Mapping\\Loader\\LoaderInterface -->
<g id="edge75" class="edge"><title>\\DMS\\Filter\\Mapping\\Loader\\AnnotationLoader&#45;&gt;\\DMS\\Filter\\Mapping\\Loader\\LoaderInterface</title>
<path fill="none" stroke="black" stroke-dasharray="1,5" d="M1047.47,-1475C970.716,-1475 839.898,-1475 760.17,-1475"/>
<polygon fill="none" stroke="black" points="759.749,-1471.5 749.749,-1475 759.749,-1478.5 759.749,-1471.5"/>
</g>
<!-- \\DMS\\Filter\\Mapping\\ClassMetadata -->
<g id="node37" class="node"><title>\\DMS\\Filter\\Mapping\\ClassMetadata</title>
<a xlink:href="db_DMS_Filter_Mapping_ClassMetadata.html" xlink:title="ClassMetadata" target="_parent">
<polygon fill="none" stroke="black" points="1162,-1439 1058,-1439 1058,-1403 1162,-1403 1162,-1439"/>
<text text-anchor="middle" x="1110" y="-1417.6" font-family="Courier,monospace" font-size="11.00">ClassMetadata</text>
</a>
</g>
<!-- \\DMS\\Filter\\Mapping\\ClassMetadataInterface -->
<g id="node40" class="node"><title>\\DMS\\Filter\\Mapping\\ClassMetadataInterface</title>
<a xlink:href="db_DMS_Filter_Mapping_ClassMetadataInterface.html" xlink:title="ClassMetadataInterface" target="_parent">
<polygon fill="none" stroke="black" points="773,-1439 609,-1439 609,-1403 773,-1403 773,-1439"/>
<text text-anchor="middle" x="691" y="-1417.6" font-family="Courier,monospace" font-size="11.00">ClassMetadataInterface</text>
</a>
</g>
<!-- \\DMS\\Filter\\Mapping\\ClassMetadata&#45;&gt;\\DMS\\Filter\\Mapping\\ClassMetadataInterface -->
<g id="edge71" class="edge"><title>\\DMS\\Filter\\Mapping\\ClassMetadata&#45;&gt;\\DMS\\Filter\\Mapping\\ClassMetadataInterface</title>
<path fill="none" stroke="black" stroke-dasharray="1,5" d="M1057.87,-1421C989.633,-1421 867.64,-1421 783.395,-1421"/>
<polygon fill="none" stroke="black" points="783.314,-1417.5 773.314,-1421 783.314,-1424.5 783.314,-1417.5"/>
</g>
<!-- \\DMS\\Filter\\Mapping\\ClassMetadataFactory -->
<g id="node38" class="node"><title>\\DMS\\Filter\\Mapping\\ClassMetadataFactory</title>
<a xlink:href="db_DMS_Filter_Mapping_ClassMetadataFactory.html" xlink:title="ClassMetadataFactory" target="_parent">
<polygon fill="none" stroke="black" points="1185.5,-1385 1034.5,-1385 1034.5,-1349 1185.5,-1349 1185.5,-1385"/>
<text text-anchor="middle" x="1110" y="-1363.6" font-family="Courier,monospace" font-size="11.00">ClassMetadataFactory</text>
</a>
</g>
<!-- \\DMS\\Filter\\Mapping\\ClassMetadataFactoryInterface -->
<g id="node39" class="node"><title>\\DMS\\Filter\\Mapping\\ClassMetadataFactoryInterface</title>
<a xlink:href="db_DMS_Filter_Mapping_ClassMetadataFactoryInterface.html" xlink:title="ClassMetadataFactoryInterface" target="_parent">
<polygon fill="none" stroke="black" points="797,-1385 585,-1385 585,-1349 797,-1349 797,-1385"/>
<text text-anchor="middle" x="691" y="-1363.6" font-family="Courier,monospace" font-size="11.00">ClassMetadataFactoryInterface</text>
</a>
</g>
<!-- \\DMS\\Filter\\Mapping\\ClassMetadataFactory&#45;&gt;\\DMS\\Filter\\Mapping\\ClassMetadataFactoryInterface -->
<g id="edge73" class="edge"><title>\\DMS\\Filter\\Mapping\\ClassMetadataFactory&#45;&gt;\\DMS\\Filter\\Mapping\\ClassMetadataFactoryInterface</title>
<path fill="none" stroke="black" stroke-dasharray="1,5" d="M1034.45,-1367C971.354,-1367 879.878,-1367 807.34,-1367"/>
<polygon fill="none" stroke="black" points="807.235,-1363.5 797.235,-1367 807.235,-1370.5 807.235,-1363.5"/>
</g>
<!-- \\DMS\\Filter\\Rules\\Alnum -->
<g id="node43" class="node"><title>\\DMS\\Filter\\Rules\\Alnum</title>
<a xlink:href="db_DMS_Filter_Rules_Alnum.html" xlink:title="Alnum" target="_parent">
<polygon fill="none" stroke="black" points="1137,-1304 1083,-1304 1083,-1268 1137,-1268 1137,-1304"/>
<text text-anchor="middle" x="1110" y="-1282.6" font-family="Courier,monospace" font-size="11.00">Alnum</text>
</a>
</g>
<!-- \\DMS\\Filter\\Rules\\Rule -->
<g id="node47" class="node"><title>\\DMS\\Filter\\Rules\\Rule</title>
<a xlink:href="db_DMS_Filter_Rules_Rule.html" xlink:title="«abstract»&lt;br/&gt;Rule" target="_parent">
<polygon fill="none" stroke="black" points="733.5,-1088 648.5,-1088 648.5,-1052 733.5,-1052 733.5,-1088"/>
<text text-anchor="start" x="657" y="-1072.6" font-family="Courier,monospace" font-size="11.00">«abstract»</text>
<text text-anchor="start" x="677" y="-1061.6" font-family="Courier,monospace" font-size="11.00">Rule</text>
</a>
</g>
<!-- \\DMS\\Filter\\Rules\\Alnum&#45;&gt;\\DMS\\Filter\\Rules\\Rule -->
<g id="edge49" class="edge"><title>\\DMS\\Filter\\Rules\\Alnum&#45;&gt;\\DMS\\Filter\\Rules\\Rule</title>
<path fill="none" stroke="black" d="M1082.64,-1280.06C1063.92,-1275.42 1038.41,-1268.21 1017,-1259 905.498,-1211.05 784.502,-1133.04 726.636,-1093.94"/>
<polygon fill="none" stroke="black" points="728.473,-1090.95 718.234,-1088.23 724.541,-1096.75 728.473,-1090.95"/>
</g>
<!-- \\DMS\\Filter\\Rules\\Boolean -->
<g id="node44" class="node"><title>\\DMS\\Filter\\Rules\\Boolean</title>
<a xlink:href="db_DMS_Filter_Rules_Boolean.html" xlink:title="Boolean" target="_parent">
<polygon fill="none" stroke="black" points="1142,-1250 1078,-1250 1078,-1214 1142,-1214 1142,-1250"/>
<text text-anchor="middle" x="1110" y="-1228.6" font-family="Courier,monospace" font-size="11.00">Boolean</text>
</a>
</g>
<!-- \\DMS\\Filter\\Rules\\Boolean&#45;&gt;\\DMS\\Filter\\Rules\\Rule -->
<g id="edge51" class="edge"><title>\\DMS\\Filter\\Rules\\Boolean&#45;&gt;\\DMS\\Filter\\Rules\\Rule</title>
<path fill="none" stroke="black" d="M1077.65,-1223.71C1059.73,-1218.74 1036.93,-1212.04 1017,-1205 917.272,-1169.77 803.805,-1120.45 740.784,-1092.21"/>
<polygon fill="none" stroke="black" points="742.042,-1088.94 731.486,-1088.03 739.173,-1095.33 742.042,-1088.94"/>
</g>
<!-- \\DMS\\Filter\\Rules\\Float -->
<g id="node45" class="node"><title>\\DMS\\Filter\\Rules\\Float</title>
<a xlink:href="db_DMS_Filter_Rules_Float.html" xlink:title="Float" target="_parent">
<polygon fill="none" stroke="black" points="1137,-1196 1083,-1196 1083,-1160 1137,-1160 1137,-1196"/>
<text text-anchor="middle" x="1110" y="-1174.6" font-family="Courier,monospace" font-size="11.00">Float</text>
</a>
</g>
<!-- \\DMS\\Filter\\Rules\\Float&#45;&gt;\\DMS\\Filter\\Rules\\Rule -->
<g id="edge53" class="edge"><title>\\DMS\\Filter\\Rules\\Float&#45;&gt;\\DMS\\Filter\\Rules\\Rule</title>
<path fill="none" stroke="black" d="M1082.91,-1171.24C1015.2,-1153.71 832.873,-1106.49 743.208,-1083.26"/>
<polygon fill="none" stroke="black" points="744.084,-1079.87 733.526,-1080.75 742.329,-1086.65 744.084,-1079.87"/>
</g>
<!-- \\DMS\\Filter\\Rules\\Int -->
<g id="node46" class="node"><title>\\DMS\\Filter\\Rules\\Int</title>
<a xlink:href="db_DMS_Filter_Rules_Int.html" xlink:title="Int" target="_parent">
<polygon fill="none" stroke="black" points="1137,-1142 1083,-1142 1083,-1106 1137,-1106 1137,-1142"/>
<text text-anchor="middle" x="1110" y="-1120.6" font-family="Courier,monospace" font-size="11.00">Int</text>
</a>
</g>
<!-- \\DMS\\Filter\\Rules\\Int&#45;&gt;\\DMS\\Filter\\Rules\\Rule -->
<g id="edge55" class="edge"><title>\\DMS\\Filter\\Rules\\Int&#45;&gt;\\DMS\\Filter\\Rules\\Rule</title>
<path fill="none" stroke="black" d="M1082.91,-1120.62C1015.27,-1111.86 833.242,-1088.29 743.481,-1076.67"/>
<polygon fill="none" stroke="black" points="743.893,-1073.19 733.526,-1075.38 742.994,-1080.13 743.893,-1073.19"/>
</g>
<!-- \\DMS\\Filter\\Rules\\StripNewlines -->
<g id="node48" class="node"><title>\\DMS\\Filter\\Rules\\StripNewlines</title>
<a xlink:href="db_DMS_Filter_Rules_StripNewlines.html" xlink:title="StripNewlines" target="_parent">
<polygon fill="none" stroke="black" points="1162,-1088 1058,-1088 1058,-1052 1162,-1052 1162,-1088"/>
<text text-anchor="middle" x="1110" y="-1066.6" font-family="Courier,monospace" font-size="11.00">StripNewlines</text>
</a>
</g>
<!-- \\DMS\\Filter\\Rules\\StripNewlines&#45;&gt;\\DMS\\Filter\\Rules\\Rule -->
<g id="edge57" class="edge"><title>\\DMS\\Filter\\Rules\\StripNewlines&#45;&gt;\\DMS\\Filter\\Rules\\Rule</title>
<path fill="none" stroke="black" d="M1057.87,-1070C977.943,-1070 824.259,-1070 743.878,-1070"/>
<polygon fill="none" stroke="black" points="743.508,-1066.5 733.508,-1070 743.508,-1073.5 743.508,-1066.5"/>
</g>
<!-- \\DMS\\Filter\\Rules\\StripTags -->
<g id="node49" class="node"><title>\\DMS\\Filter\\Rules\\StripTags</title>
<a xlink:href="db_DMS_Filter_Rules_StripTags.html" xlink:title="StripTags" target="_parent">
<polygon fill="none" stroke="black" points="1148.5,-1034 1071.5,-1034 1071.5,-998 1148.5,-998 1148.5,-1034"/>
<text text-anchor="middle" x="1110" y="-1012.6" font-family="Courier,monospace" font-size="11.00">StripTags</text>
</a>
</g>
<!-- \\DMS\\Filter\\Rules\\StripTags&#45;&gt;\\DMS\\Filter\\Rules\\Rule -->
<g id="edge59" class="edge"><title>\\DMS\\Filter\\Rules\\StripTags&#45;&gt;\\DMS\\Filter\\Rules\\Rule</title>
<path fill="none" stroke="black" d="M1071.46,-1024.94C1039.79,-1032.16 993.164,-1042.08 952,-1048 880.117,-1058.33 796.303,-1064.35 743.691,-1067.41"/>
<polygon fill="none" stroke="black" points="743.383,-1063.92 733.597,-1067.98 743.779,-1070.91 743.383,-1063.92"/>
</g>
<!-- \\DMS\\Filter\\Rules\\ToLower -->
<g id="node50" class="node"><title>\\DMS\\Filter\\Rules\\ToLower</title>
<a xlink:href="db_DMS_Filter_Rules_ToLower.html" xlink:title="ToLower" target="_parent">
<polygon fill="none" stroke="black" points="1142,-980 1078,-980 1078,-944 1142,-944 1142,-980"/>
<text text-anchor="middle" x="1110" y="-958.6" font-family="Courier,monospace" font-size="11.00">ToLower</text>
</a>
</g>
<!-- \\DMS\\Filter\\Rules\\ToLower&#45;&gt;\\DMS\\Filter\\Rules\\Rule -->
<g id="edge61" class="edge"><title>\\DMS\\Filter\\Rules\\ToLower&#45;&gt;\\DMS\\Filter\\Rules\\Rule</title>
<path fill="none" stroke="black" d="M1077.79,-967.489C1059.3,-971.615 1035.87,-978.412 1017,-989 982.974,-1008.09 987.77,-1032.42 952,-1048 884.499,-1077.4 797.912,-1078.33 743.68,-1075.1"/>
<polygon fill="none" stroke="black" points="743.822,-1071.6 733.611,-1074.43 743.356,-1078.59 743.822,-1071.6"/>
</g>
<!-- \\DMS\\Filter\\Rules\\ToUpper -->
<g id="node51" class="node"><title>\\DMS\\Filter\\Rules\\ToUpper</title>
<a xlink:href="db_DMS_Filter_Rules_ToUpper.html" xlink:title="ToUpper" target="_parent">
<polygon fill="none" stroke="black" points="1142,-926 1078,-926 1078,-890 1142,-890 1142,-926"/>
<text text-anchor="middle" x="1110" y="-904.6" font-family="Courier,monospace" font-size="11.00">ToUpper</text>
</a>
</g>
<!-- \\DMS\\Filter\\Rules\\ToUpper&#45;&gt;\\DMS\\Filter\\Rules\\Rule -->
<g id="edge63" class="edge"><title>\\DMS\\Filter\\Rules\\ToUpper&#45;&gt;\\DMS\\Filter\\Rules\\Rule</title>
<path fill="none" stroke="black" d="M1077.74,-911.223C1058.54,-914.549 1034.39,-921.302 1017,-935 971.484,-970.848 1000.88,-1016.9 952,-1048 889.032,-1088.06 799.432,-1085.67 743.555,-1078.88"/>
<polygon fill="none" stroke="black" points="743.897,-1075.39 733.528,-1077.57 742.99,-1082.33 743.897,-1075.39"/>
</g>
<!-- \\DMS\\Filter\\Rules\\Trim -->
<g id="node52" class="node"><title>\\DMS\\Filter\\Rules\\Trim</title>
<a xlink:href="db_DMS_Filter_Rules_Trim.html" xlink:title="Trim" target="_parent">
<polygon fill="none" stroke="black" points="1137,-872 1083,-872 1083,-836 1137,-836 1137,-872"/>
<text text-anchor="middle" x="1110" y="-850.6" font-family="Courier,monospace" font-size="11.00">Trim</text>
</a>
</g>
<!-- \\DMS\\Filter\\Rules\\Trim&#45;&gt;\\DMS\\Filter\\Rules\\Rule -->
<g id="edge65" class="edge"><title>\\DMS\\Filter\\Rules\\Trim&#45;&gt;\\DMS\\Filter\\Rules\\Rule</title>
<path fill="none" stroke="black" d="M1082.97,-855.518C1062.69,-858.008 1035.03,-864.455 1017,-881 958.32,-934.854 1015.79,-1000.31 952,-1048 891.888,-1092.94 800.676,-1088.93 743.801,-1080.5"/>
<polygon fill="none" stroke="black" points="744.02,-1076.99 733.596,-1078.88 742.926,-1083.9 744.02,-1076.99"/>
</g>
<!-- \\DMS\\Filter\\Filter -->
<g id="node53" class="node"><title>\\DMS\\Filter\\Filter</title>
<a xlink:href="db_DMS_Filter_Filter.html" xlink:title="Filter" target="_parent">
<polygon fill="none" stroke="black" points="1138.5,-818 1081.5,-818 1081.5,-782 1138.5,-782 1138.5,-818"/>
<text text-anchor="middle" x="1110" y="-796.6" font-family="Courier,monospace" font-size="11.00">Filter</text>
</a>
</g>
<!-- \\DMS\\Filter\\FilterInterface -->
<g id="node54" class="node"><title>\\DMS\\Filter\\FilterInterface</title>
<a xlink:href="db_DMS_Filter_FilterInterface.html" xlink:title="FilterInterface" target="_parent">
<polygon fill="none" stroke="black" points="749.5,-818 632.5,-818 632.5,-782 749.5,-782 749.5,-818"/>
<text text-anchor="middle" x="691" y="-796.6" font-family="Courier,monospace" font-size="11.00">FilterInterface</text>
</a>
</g>
<!-- \\DMS\\Filter\\Filter&#45;&gt;\\DMS\\Filter\\FilterInterface -->
<g id="edge69" class="edge"><title>\\DMS\\Filter\\Filter&#45;&gt;\\DMS\\Filter\\FilterInterface</title>
<path fill="none" stroke="black" stroke-dasharray="1,5" d="M1081.32,-800C1016.44,-800 853.058,-800 759.871,-800"/>
<polygon fill="none" stroke="black" points="759.696,-796.5 749.696,-800 759.696,-803.5 759.696,-796.5"/>
</g>
<!-- \\DMS\\Filter\\ObjectWalker -->
<g id="node55" class="node"><title>\\DMS\\Filter\\ObjectWalker</title>
<a xlink:href="db_DMS_Filter_ObjectWalker.html" xlink:title="ObjectWalker" target="_parent">
<polygon fill="none" stroke="black" points="1158.5,-764 1061.5,-764 1061.5,-728 1158.5,-728 1158.5,-764"/>
<text text-anchor="middle" x="1110" y="-742.6" font-family="Courier,monospace" font-size="11.00">ObjectWalker</text>
</a>
</g>
<!-- \\DMS\\Filter\\Version -->
<g id="node56" class="node"><title>\\DMS\\Filter\\Version</title>
<a xlink:href="db_DMS_Filter_Version.html" xlink:title="Version" target="_parent">
<polygon fill="none" stroke="black" points="1142,-710 1078,-710 1078,-674 1142,-674 1142,-710"/>
<text text-anchor="middle" x="1110" y="-688.6" font-family="Courier,monospace" font-size="11.00">Version</text>
</a>
</g>
</g>
</svg>
