<?xml version="1.0" encoding="UTF-8" standalone="no"?>
<!DOCTYPE svg PUBLIC "-//W3C//DTD SVG 1.1//EN" "http://www.w3.org/Graphics/SVG/1.1/DTD/svg11.dtd">
<!-- Generated by graphviz version 2.26.3 (20100126.1600)
 -->
<!-- Title: G Pages: 1 -->
<svg xmlns="http://www.w3.org/2000/svg" xmlns:xlink="http://www.w3.org/1999/xlink" width="924pt" height="996pt">
<g id="viewport" class="graph" transform="scale(1 1) rotate(0) translate(4 992)">
<title>G</title>
<polygon fill="white" stroke="white" points="-4,5 -4,-992 921,-992 921,5 -4,5"/>
<g id="graph2" class="cluster"><title>cluster_DMS</title>
<polyline fill="none" stroke="gray" points="226,-8 896,-8 "/>
<path fill="none" stroke="gray" d="M896,-8C902,-8 908,-14 908,-20"/>
<polyline fill="none" stroke="gray" points="908,-20 908,-968 "/>
<path fill="none" stroke="gray" d="M908,-968C908,-974 902,-980 896,-980"/>
<polyline fill="none" stroke="gray" points="896,-980 226,-980 "/>
<path fill="none" stroke="gray" d="M226,-980C220,-980 214,-974 214,-968"/>
<polyline fill="none" stroke="gray" points="214,-968 214,-20 "/>
<path fill="none" stroke="gray" d="M214,-20C214,-14 220,-8 226,-8"/>
<text text-anchor="middle" x="561" y="-966.1" font-family="Times,serif" font-size="11.00" fill="gray">DMS</text>
</g>
<g id="graph3" class="cluster"><title>cluster_DMS_Filter</title>
<polyline fill="none" stroke="gray" points="234,-16 888,-16 "/>
<path fill="none" stroke="gray" d="M888,-16C894,-16 900,-22 900,-28"/>
<polyline fill="none" stroke="gray" points="900,-28 900,-940 "/>
<path fill="none" stroke="gray" d="M900,-940C900,-946 894,-952 888,-952"/>
<polyline fill="none" stroke="gray" points="888,-952 234,-952 "/>
<path fill="none" stroke="gray" d="M234,-952C228,-952 222,-946 222,-940"/>
<polyline fill="none" stroke="gray" points="222,-940 222,-28 "/>
<path fill="none" stroke="gray" d="M222,-28C222,-22 228,-16 234,-16"/>
<text text-anchor="middle" x="561" y="-938.1" font-family="Times,serif" font-size="11.00" fill="gray">Filter</text>
</g>
<g id="graph4" class="cluster"><title>cluster_DMS_Filter_Exception</title>
<polyline fill="none" stroke="gray" points="242,-798 880,-798 "/>
<path fill="none" stroke="gray" d="M880,-798C886,-798 892,-804 892,-810"/>
<polyline fill="none" stroke="gray" points="892,-810 892,-912 "/>
<path fill="none" stroke="gray" d="M892,-912C892,-918 886,-924 880,-924"/>
<polyline fill="none" stroke="gray" points="880,-924 242,-924 "/>
<path fill="none" stroke="gray" d="M242,-924C236,-924 230,-918 230,-912"/>
<polyline fill="none" stroke="gray" points="230,-912 230,-810 "/>
<path fill="none" stroke="gray" d="M230,-810C230,-804 236,-798 242,-798"/>
<text text-anchor="middle" x="561" y="-910.1" font-family="Times,serif" font-size="11.00" fill="gray">Exception</text>
</g>
<g id="graph5" class="cluster"><title>cluster_DMS_Filter_Mapping</title>
<polyline fill="none" stroke="gray" points="432,-582 870,-582 "/>
<path fill="none" stroke="gray" d="M870,-582C876,-582 882,-588 882,-594"/>
<polyline fill="none" stroke="gray" points="882,-594 882,-778 "/>
<path fill="none" stroke="gray" d="M882,-778C882,-784 876,-790 870,-790"/>
<polyline fill="none" stroke="gray" points="870,-790 432,-790 "/>
<path fill="none" stroke="gray" d="M432,-790C426,-790 420,-784 420,-778"/>
<polyline fill="none" stroke="gray" points="420,-778 420,-594 "/>
<path fill="none" stroke="gray" d="M420,-594C420,-588 426,-582 432,-582"/>
<text text-anchor="middle" x="651" y="-776.1" font-family="Times,serif" font-size="11.00" fill="gray">Mapping</text>
</g>
<g id="graph6" class="cluster"><title>cluster_DMS_Filter_Mapping_Loader</title>
<polyline fill="none" stroke="gray" points="479,-690 857,-690 "/>
<path fill="none" stroke="gray" d="M857,-690C863,-690 869,-696 869,-702"/>
<polyline fill="none" stroke="gray" points="869,-702 869,-750 "/>
<path fill="none" stroke="gray" d="M869,-750C869,-756 863,-762 857,-762"/>
<polyline fill="none" stroke="gray" points="857,-762 479,-762 "/>
<path fill="none" stroke="gray" d="M479,-762C473,-762 467,-756 467,-750"/>
<polyline fill="none" stroke="gray" points="467,-750 467,-702 "/>
<path fill="none" stroke="gray" d="M467,-702C467,-696 473,-690 479,-690"/>
<text text-anchor="middle" x="668" y="-748.1" font-family="Times,serif" font-size="11.00" fill="gray">Loader</text>
</g>
<g id="graph8" class="cluster"><title>cluster_DMS_Filter_Rules</title>
<polyline fill="none" stroke="gray" points="455,-178 846,-178 "/>
<path fill="none" stroke="gray" d="M846,-178C852,-178 858,-184 858,-190"/>
<polyline fill="none" stroke="gray" points="858,-190 858,-562 "/>
<path fill="none" stroke="gray" d="M858,-562C858,-568 852,-574 846,-574"/>
<polyline fill="none" stroke="gray" points="846,-574 455,-574 "/>
<path fill="none" stroke="gray" d="M455,-574C449,-574 443,-568 443,-562"/>
<polyline fill="none" stroke="gray" points="443,-562 443,-190 "/>
<path fill="none" stroke="gray" d="M443,-190C443,-184 449,-178 455,-178"/>
<text text-anchor="middle" x="650.5" y="-560.1" font-family="Times,serif" font-size="11.00" fill="gray">Rules</text>
</g>
<!-- _DMS_Filter_Exception_FilterException -->
<g id="node4" class="node"><title>_DMS_Filter_Exception_FilterException</title>
<a xlink:href="_Exception_FilterException.html" xlink:title="FilterException" target="_parent">
<polygon fill="none" stroke="black" points="356,-869 238,-869 238,-833 356,-833 356,-869"/>
<text text-anchor="middle" x="297" y="-848.1" font-family="Courier New" font-size="11.00">FilterException</text>
</a>
</g>
<!-- _RuntimeException -->
<g id="node37" class="node"><title>_RuntimeException</title>
<ellipse fill="none" stroke="black" cx="83" cy="-851" rx="83.1926" ry="18"/>
<text text-anchor="middle" x="83" y="-845.9" font-family="Times,serif" font-size="14.00" fill="gray">\RuntimeException</text>
</g>
<!-- _DMS_Filter_Exception_FilterException&#45;&gt;_RuntimeException -->
<g id="edge14" class="edge"><title>_DMS_Filter_Exception_FilterException-&gt;_RuntimeException</title>
<path fill="none" stroke="black" d="M237.957,-851C218.926,-851 197.343,-851 176.459,-851"/>
<polygon fill="none" stroke="black" points="176.278,-847.5 166.278,-851 176.278,-854.5 176.278,-847.5"/>
</g>
<!-- _DMS_Filter_Exception_InvalidOptionsException -->
<g id="node5" class="node"><title>_DMS_Filter_Exception_InvalidOptionsException</title>
<a xlink:href="_Exception_InvalidOptionsException.html" xlink:title="InvalidOptionsException" target="_parent">
<polygon fill="none" stroke="black" points="884,-896 712,-896 712,-860 884,-860 884,-896"/>
<text text-anchor="middle" x="798" y="-875.1" font-family="Courier New" font-size="11.00">InvalidOptionsException</text>
</a>
</g>
<!-- _DMS_Filter_Exception_RuleOptionsException -->
<g id="node8" class="node"><title>_DMS_Filter_Exception_RuleOptionsException</title>
<a xlink:href="_Exception_RuleOptionsException.html" xlink:title="RuleOptionsException" target="_parent">
<polygon fill="none" stroke="black" points="610,-896 458,-896 458,-860 610,-860 610,-896"/>
<text text-anchor="middle" x="534" y="-875.1" font-family="Courier New" font-size="11.00">RuleOptionsException</text>
</a>
</g>
<!-- _DMS_Filter_Exception_InvalidOptionsException&#45;&gt;_DMS_Filter_Exception_RuleOptionsException -->
<g id="edge16" class="edge"><title>_DMS_Filter_Exception_InvalidOptionsException-&gt;_DMS_Filter_Exception_RuleOptionsException</title>
<path fill="none" stroke="black" d="M711.922,-878C682.579,-878 649.778,-878 620.409,-878"/>
<polygon fill="none" stroke="black" points="620.176,-874.5 610.176,-878 620.176,-881.5 620.176,-874.5"/>
</g>
<!-- _DMS_Filter_Exception_MissingOptionsException -->
<g id="node6" class="node"><title>_DMS_Filter_Exception_MissingOptionsException</title>
<a xlink:href="_Exception_MissingOptionsException.html" xlink:title="MissingOptionsException" target="_parent">
<polygon fill="none" stroke="black" points="884,-842 712,-842 712,-806 884,-806 884,-842"/>
<text text-anchor="middle" x="798" y="-821.1" font-family="Courier New" font-size="11.00">MissingOptionsException</text>
</a>
</g>
<!-- _DMS_Filter_Exception_MissingOptionsException&#45;&gt;_DMS_Filter_Exception_RuleOptionsException -->
<g id="edge18" class="edge"><title>_DMS_Filter_Exception_MissingOptionsException-&gt;_DMS_Filter_Exception_RuleOptionsException</title>
<path fill="none" stroke="black" d="M711.922,-841.607C682.451,-847.635 649.491,-854.377 620.025,-860.404"/>
<polygon fill="none" stroke="black" points="619.271,-856.986 610.176,-862.419 620.674,-863.844 619.271,-856.986"/>
</g>
<!-- _DMS_Filter_Exception_RuleDefinitionException -->
<g id="node7" class="node"><title>_DMS_Filter_Exception_RuleDefinitionException</title>
<a xlink:href="_Exception_RuleDefinitionException.html" xlink:title="RuleDefinitionException" target="_parent">
<polygon fill="none" stroke="black" points="620,-842 448,-842 448,-806 620,-806 620,-842"/>
<text text-anchor="middle" x="534" y="-821.1" font-family="Courier New" font-size="11.00">RuleDefinitionException</text>
</a>
</g>
<!-- _DMS_Filter_Exception_RuleDefinitionException&#45;&gt;_DMS_Filter_Exception_FilterException -->
<g id="edge20" class="edge"><title>_DMS_Filter_Exception_RuleDefinitionException-&gt;_DMS_Filter_Exception_FilterException</title>
<path fill="none" stroke="black" d="M447.767,-833.824C420.893,-836.886 391.623,-840.22 366.084,-843.13"/>
<polygon fill="none" stroke="black" points="365.664,-839.655 356.125,-844.264 366.457,-846.61 365.664,-839.655"/>
</g>
<!-- _DMS_Filter_Exception_RuleOptionsException&#45;&gt;_DMS_Filter_Exception_FilterException -->
<g id="edge22" class="edge"><title>_DMS_Filter_Exception_RuleOptionsException-&gt;_DMS_Filter_Exception_FilterException</title>
<path fill="none" stroke="black" d="M457.707,-869.308C428.293,-865.957 394.888,-862.152 366.182,-858.882"/>
<polygon fill="none" stroke="black" points="366.571,-855.403 356.239,-857.749 365.779,-862.358 366.571,-855.403"/>
</g>
<!-- _DMS_Filter_Mapping_Loader_AnnotationLoader -->
<g id="node11" class="node"><title>_DMS_Filter_Mapping_Loader_AnnotationLoader</title>
<a xlink:href="_Mapping_Loader_AnnotationLoader.html" xlink:title="AnnotationLoader" target="_parent">
<polygon fill="none" stroke="black" points="860,-734 736,-734 736,-698 860,-698 860,-734"/>
<text text-anchor="middle" x="798" y="-713.1" font-family="Courier New" font-size="11.00">AnnotationLoader</text>
</a>
</g>
<!-- _DMS_Filter_Mapping_Loader_LoaderInterface -->
<g id="node12" class="node"><title>_DMS_Filter_Mapping_Loader_LoaderInterface</title>
<a xlink:href="_Mapping_Loader_LoaderInterface.html" xlink:title="LoaderInterface" target="_parent">
<polygon fill="none" stroke="black" points="593,-734 475,-734 475,-698 593,-698 593,-734"/>
<text text-anchor="middle" x="534" y="-713.1" font-family="Courier New" font-size="11.00">LoaderInterface</text>
</a>
</g>
<!-- _DMS_Filter_Mapping_Loader_AnnotationLoader&#45;&gt;_DMS_Filter_Mapping_Loader_LoaderInterface -->
<g id="edge44" class="edge"><title>_DMS_Filter_Mapping_Loader_AnnotationLoader-&gt;_DMS_Filter_Mapping_Loader_LoaderInterface</title>
<path fill="none" stroke="black" stroke-dasharray="1,5" d="M735.436,-716C695.796,-716 644.478,-716 603.561,-716"/>
<polygon fill="none" stroke="black" points="603.396,-712.5 593.396,-716 603.396,-719.5 603.396,-712.5"/>
</g>
<!-- _DMS_Filter_Mapping_ClassMetadata -->
<g id="node13" class="node"><title>_DMS_Filter_Mapping_ClassMetadata</title>
<a xlink:href="_Mapping_ClassMetadata.html" xlink:title="ClassMetadata" target="_parent">
<polygon fill="none" stroke="black" points="850,-680 746,-680 746,-644 850,-644 850,-680"/>
<text text-anchor="middle" x="798" y="-659.1" font-family="Courier New" font-size="11.00">ClassMetadata</text>
</a>
</g>
<!-- _DMS_Filter_Mapping_ClassMetadataInterface -->
<g id="node16" class="node"><title>_DMS_Filter_Mapping_ClassMetadataInterface</title>
<a xlink:href="_Mapping_ClassMetadataInterface.html" xlink:title="ClassMetadataInterface" target="_parent">
<polygon fill="none" stroke="black" points="616,-680 452,-680 452,-644 616,-644 616,-680"/>
<text text-anchor="middle" x="534" y="-659.1" font-family="Courier New" font-size="11.00">ClassMetadataInterface</text>
</a>
</g>
<!-- _DMS_Filter_Mapping_ClassMetadata&#45;&gt;_DMS_Filter_Mapping_ClassMetadataInterface -->
<g id="edge40" class="edge"><title>_DMS_Filter_Mapping_ClassMetadata-&gt;_DMS_Filter_Mapping_ClassMetadataInterface</title>
<path fill="none" stroke="black" stroke-dasharray="1,5" d="M745.842,-662C711.902,-662 666.683,-662 626.739,-662"/>
<polygon fill="none" stroke="black" points="626.708,-658.5 616.708,-662 626.708,-665.5 626.708,-658.5"/>
</g>
<!-- _DMS_Filter_Mapping_ClassMetadataFactory -->
<g id="node14" class="node"><title>_DMS_Filter_Mapping_ClassMetadataFactory</title>
<a xlink:href="_Mapping_ClassMetadataFactory.html" xlink:title="ClassMetadataFactory" target="_parent">
<polygon fill="none" stroke="black" points="874,-626 722,-626 722,-590 874,-590 874,-626"/>
<text text-anchor="middle" x="798" y="-605.1" font-family="Courier New" font-size="11.00">ClassMetadataFactory</text>
</a>
</g>
<!-- _DMS_Filter_Mapping_ClassMetadataFactoryInterface -->
<g id="node15" class="node"><title>_DMS_Filter_Mapping_ClassMetadataFactoryInterface</title>
<a xlink:href="_Mapping_ClassMetadataFactoryInterface.html" xlink:title="ClassMetadataFactoryInterface" target="_parent">
<polygon fill="none" stroke="black" points="640,-626 428,-626 428,-590 640,-590 640,-626"/>
<text text-anchor="middle" x="534" y="-605.1" font-family="Courier New" font-size="11.00">ClassMetadataFactoryInterface</text>
</a>
</g>
<!-- _DMS_Filter_Mapping_ClassMetadataFactory&#45;&gt;_DMS_Filter_Mapping_ClassMetadataFactoryInterface -->
<g id="edge42" class="edge"><title>_DMS_Filter_Mapping_ClassMetadataFactory-&gt;_DMS_Filter_Mapping_ClassMetadataFactoryInterface</title>
<path fill="none" stroke="black" stroke-dasharray="1,5" d="M721.994,-608C699.736,-608 674.87,-608 650.697,-608"/>
<polygon fill="none" stroke="black" points="650.39,-604.5 640.39,-608 650.39,-611.5 650.39,-604.5"/>
</g>
<!-- _DMS_Filter_Rules_Alnum -->
<g id="node19" class="node"><title>_DMS_Filter_Rules_Alnum</title>
<a xlink:href="_Rules_Alnum.html" xlink:title="Alnum" target="_parent">
<polygon fill="none" stroke="black" points="825,-546 771,-546 771,-510 825,-510 825,-546"/>
<text text-anchor="middle" x="798" y="-525.1" font-family="Courier New" font-size="11.00">Alnum</text>
</a>
</g>
<!-- _DMS_Filter_Rules_Rule -->
<g id="node23" class="node"><title>_DMS_Filter_Rules_Rule</title>
<a xlink:href="_Rules_Rule.html" xlink:title="&lt;I&gt;_DMS_Filter_Rules_Rule&lt;/I&gt;" target="_parent">
<polygon fill="none" stroke="black" points="617,-384 451,-384 451,-348 617,-348 617,-384"/>
<text text-anchor="start" x="459.5" y="-363.933" font-family="Courier New" font-size="11.00">_DMS_Filter_Rules_Rule</text>
</a>
</g>
<!-- _DMS_Filter_Rules_Alnum&#45;&gt;_DMS_Filter_Rules_Rule -->
<g id="edge24" class="edge"><title>_DMS_Filter_Rules_Alnum-&gt;_DMS_Filter_Rules_Rule</title>
<path fill="none" stroke="black" d="M770.717,-522.002C753.323,-517.566 730.633,-510.619 712,-501 653.293,-470.694 593.902,-420.946 560.73,-391.049"/>
<polygon fill="none" stroke="black" points="563.023,-388.403 553.272,-384.261 558.312,-393.58 563.023,-388.403"/>
</g>
<!-- Boolean -->
<g id="node20" class="node"><title>Boolean</title>
<a xlink:href="_Rules_Boolean.html" xlink:title="Boolean" target="_parent">
<polygon fill="none" stroke="black" points="830,-492 766,-492 766,-456 830,-456 830,-492"/>
<text text-anchor="middle" x="798" y="-471.1" font-family="Courier New" font-size="11.00">Boolean</text>
</a>
</g>
<!-- Boolean&#45;&gt;_DMS_Filter_Rules_Rule -->
<g id="edge26" class="edge"><title>Boolean-&gt;_DMS_Filter_Rules_Rule</title>
<path fill="none" stroke="black" d="M765.823,-464.921C749.53,-460.066 729.538,-453.714 712,-447 666.011,-429.394 614.997,-405.737 579.414,-388.538"/>
<polygon fill="none" stroke="black" points="580.783,-385.312 570.259,-384.09 577.724,-391.608 580.783,-385.312"/>
</g>
<!-- Float -->
<g id="node21" class="node"><title>Float</title>
<a xlink:href="_Rules_Float.html" xlink:title="Float" target="_parent">
<polygon fill="none" stroke="black" points="825,-438 771,-438 771,-402 825,-402 825,-438"/>
<text text-anchor="middle" x="798" y="-417.1" font-family="Courier New" font-size="11.00">Float</text>
</a>
</g>
<!-- Float&#45;&gt;_DMS_Filter_Rules_Rule -->
<g id="edge28" class="edge"><title>Float-&gt;_DMS_Filter_Rules_Rule</title>
<path fill="none" stroke="black" d="M770.742,-414.424C737.024,-407.528 677.859,-395.426 627.114,-385.046"/>
<polygon fill="none" stroke="black" points="627.585,-381.57 617.087,-382.995 626.183,-388.428 627.585,-381.57"/>
</g>
<!-- Int -->
<g id="node22" class="node"><title>Int</title>
<a xlink:href="_Rules_Int.html" xlink:title="Int" target="_parent">
<polygon fill="none" stroke="black" points="825,-384 771,-384 771,-348 825,-348 825,-384"/>
<text text-anchor="middle" x="798" y="-363.1" font-family="Courier New" font-size="11.00">Int</text>
</a>
</g>
<!-- Int&#45;&gt;_DMS_Filter_Rules_Rule -->
<g id="edge30" class="edge"><title>Int-&gt;_DMS_Filter_Rules_Rule</title>
<path fill="none" stroke="black" d="M770.742,-366C737.024,-366 677.859,-366 627.114,-366"/>
<polygon fill="none" stroke="black" points="627.087,-362.5 617.087,-366 627.087,-369.5 627.087,-362.5"/>
</g>
<!-- _DMS_Filter_Rules_StripNewlines -->
<g id="node24" class="node"><title>_DMS_Filter_Rules_StripNewlines</title>
<a xlink:href="_Rules_StripNewlines.html" xlink:title="StripNewlines" target="_parent">
<polygon fill="none" stroke="black" points="850,-330 746,-330 746,-294 850,-294 850,-330"/>
<text text-anchor="middle" x="798" y="-309.1" font-family="Courier New" font-size="11.00">StripNewlines</text>
</a>
</g>
<!-- _DMS_Filter_Rules_StripNewlines&#45;&gt;_DMS_Filter_Rules_Rule -->
<g id="edge32" class="edge"><title>_DMS_Filter_Rules_StripNewlines-&gt;_DMS_Filter_Rules_Rule</title>
<path fill="none" stroke="black" d="M745.842,-322.669C712.041,-329.583 667.052,-338.785 627.229,-346.93"/>
<polygon fill="none" stroke="black" points="626.321,-343.544 617.225,-348.977 627.724,-350.402 626.321,-343.544"/>
</g>
<!-- _DMS_Filter_Rules_StripTags -->
<g id="node25" class="node"><title>_DMS_Filter_Rules_StripTags</title>
<a xlink:href="_Rules_StripTags.html" xlink:title="StripTags" target="_parent">
<polygon fill="none" stroke="black" points="836,-276 760,-276 760,-240 836,-240 836,-276"/>
<text text-anchor="middle" x="798" y="-255.1" font-family="Courier New" font-size="11.00">StripTags</text>
</a>
</g>
<!-- _DMS_Filter_Rules_StripTags&#45;&gt;_DMS_Filter_Rules_Rule -->
<g id="edge34" class="edge"><title>_DMS_Filter_Rules_StripTags-&gt;_DMS_Filter_Rules_Rule</title>
<path fill="none" stroke="black" d="M759.485,-266.704C744.173,-271.018 726.732,-277.041 712,-285 675.601,-304.665 677.332,-326.17 640,-344 635.72,-346.044 631.254,-347.899 626.68,-349.582"/>
<polygon fill="none" stroke="black" points="625.516,-346.281 617.165,-352.801 627.76,-352.911 625.516,-346.281"/>
</g>
<!-- _DMS_Filter_Rules_Trim -->
<g id="node26" class="node"><title>_DMS_Filter_Rules_Trim</title>
<a xlink:href="_Rules_Trim.html" xlink:title="Trim" target="_parent">
<polygon fill="none" stroke="black" points="825,-222 771,-222 771,-186 825,-186 825,-222"/>
<text text-anchor="middle" x="798" y="-201.1" font-family="Courier New" font-size="11.00">Trim</text>
</a>
</g>
<!-- _DMS_Filter_Rules_Trim&#45;&gt;_DMS_Filter_Rules_Rule -->
<g id="edge36" class="edge"><title>_DMS_Filter_Rules_Trim-&gt;_DMS_Filter_Rules_Rule</title>
<path fill="none" stroke="black" d="M770.955,-207.549C752.793,-211.045 729.142,-217.864 712,-231 664.732,-267.222 689.012,-310.176 640,-344 635.758,-346.927 631.209,-349.48 626.467,-351.705"/>
<polygon fill="none" stroke="black" points="625.024,-348.514 617.139,-355.591 627.716,-354.976 625.024,-348.514"/>
</g>
<!-- _DMS_Filter_Filter -->
<g id="node27" class="node"><title>_DMS_Filter_Filter</title>
<a xlink:href="_Filter.html" xlink:title="Filter" target="_parent">
<polygon fill="none" stroke="black" points="826,-168 770,-168 770,-132 826,-132 826,-168"/>
<text text-anchor="middle" x="798" y="-147.1" font-family="Courier New" font-size="11.00">Filter</text>
</a>
</g>
<!-- _DMS_Filter_FilterInterface -->
<g id="node28" class="node"><title>_DMS_Filter_FilterInterface</title>
<a xlink:href="_FilterInterface.html" xlink:title="FilterInterface" target="_parent">
<polygon fill="none" stroke="black" points="593,-168 475,-168 475,-132 593,-132 593,-168"/>
<text text-anchor="middle" x="534" y="-147.1" font-family="Courier New" font-size="11.00">FilterInterface</text>
</a>
</g>
<!-- _DMS_Filter_Filter&#45;&gt;_DMS_Filter_FilterInterface -->
<g id="edge38" class="edge"><title>_DMS_Filter_Filter-&gt;_DMS_Filter_FilterInterface</title>
<path fill="none" stroke="black" stroke-dasharray="1,5" d="M769.497,-150C730.041,-150 657.523,-150 603.343,-150"/>
<polygon fill="none" stroke="black" points="603.11,-146.5 593.11,-150 603.11,-153.5 603.11,-146.5"/>
</g>
<!-- _DMS_Filter_ObjectWalker -->
<g id="node29" class="node"><title>_DMS_Filter_ObjectWalker</title>
<a xlink:href="_ObjectWalker.html" xlink:title="ObjectWalker" target="_parent">
<polygon fill="none" stroke="black" points="847,-114 749,-114 749,-78 847,-78 847,-114"/>
<text text-anchor="middle" x="798" y="-93.1" font-family="Courier New" font-size="11.00">ObjectWalker</text>
</a>
</g>
<!-- _DMS_Filter_Version -->
<g id="node30" class="node"><title>_DMS_Filter_Version</title>
<a xlink:href="_Version.html" xlink:title="Version" target="_parent">
<polygon fill="none" stroke="black" points="830,-60 766,-60 766,-24 830,-24 830,-60"/>
<text text-anchor="middle" x="798" y="-39.1" font-family="Courier New" font-size="11.00">Version</text>
</a>
</g>
</g>
<script xlink:href="js/SVGPan.js"/></svg>
