<?xml version="1.0" encoding="UTF-8" standalone="no"?>
<!DOCTYPE svg PUBLIC "-//W3C//DTD SVG 1.1//EN" "http://www.w3.org/Graphics/SVG/1.1/DTD/svg11.dtd">
<!-- Generated by graphviz version 2.28.0 (20110509.1545)
 -->
<!-- Title: G Pages: 1 -->
<svg xmlns="http://www.w3.org/2000/svg" xmlns:xlink="http://www.w3.org/1999/xlink" width="920pt" height="1110pt">
<g id="viewport" class="graph" transform="scale(1 1) rotate(0) translate(4 1106)">
<title>G</title>
<polygon fill="white" stroke="white" points="-4,5 -4,-1106 917,-1106 917,5 -4,5"/>
<g id="graph2" class="cluster"><title>cluster_DMS</title>
<polyline fill="none" stroke="gray" points="232,-8 892,-8 "/>
<path fill="none" stroke="gray" d="M892,-8C898,-8 904,-14 904,-20"/>
<polyline fill="none" stroke="gray" points="904,-20 904,-1082 "/>
<path fill="none" stroke="gray" d="M904,-1082C904,-1088 898,-1094 892,-1094"/>
<polyline fill="none" stroke="gray" points="892,-1094 232,-1094 "/>
<path fill="none" stroke="gray" d="M232,-1094C226,-1094 220,-1088 220,-1082"/>
<polyline fill="none" stroke="gray" points="220,-1082 220,-20 "/>
<path fill="none" stroke="gray" d="M220,-20C220,-14 226,-8 232,-8"/>
<text text-anchor="middle" x="562" y="-1080.1" font-family="Times,serif" font-size="11.00" fill="gray">DMS</text>
</g>
<g id="graph3" class="cluster"><title>cluster_DMS_Filter</title>
<polyline fill="none" stroke="gray" points="240,-16 884,-16 "/>
<path fill="none" stroke="gray" d="M884,-16C890,-16 896,-22 896,-28"/>
<polyline fill="none" stroke="gray" points="896,-28 896,-1053 "/>
<path fill="none" stroke="gray" d="M896,-1053C896,-1059 890,-1065 884,-1065"/>
<polyline fill="none" stroke="gray" points="884,-1065 240,-1065 "/>
<path fill="none" stroke="gray" d="M240,-1065C234,-1065 228,-1059 228,-1053"/>
<polyline fill="none" stroke="gray" points="228,-1053 228,-28 "/>
<path fill="none" stroke="gray" d="M228,-28C228,-22 234,-16 240,-16"/>
<text text-anchor="middle" x="562" y="-1051.1" font-family="Times,serif" font-size="11.00" fill="gray">Filter</text>
</g>
<g id="graph4" class="cluster"><title>cluster_DMS_Filter_Exception</title>
<polyline fill="none" stroke="gray" points="248,-909 876,-909 "/>
<path fill="none" stroke="gray" d="M876,-909C882,-909 888,-915 888,-921"/>
<polyline fill="none" stroke="gray" points="888,-921 888,-1024 "/>
<path fill="none" stroke="gray" d="M888,-1024C888,-1030 882,-1036 876,-1036"/>
<polyline fill="none" stroke="gray" points="876,-1036 248,-1036 "/>
<path fill="none" stroke="gray" d="M248,-1036C242,-1036 236,-1030 236,-1024"/>
<polyline fill="none" stroke="gray" points="236,-1024 236,-921 "/>
<path fill="none" stroke="gray" d="M236,-921C236,-915 242,-909 248,-909"/>
<text text-anchor="middle" x="562" y="-1022.1" font-family="Times,serif" font-size="11.00" fill="gray">Exception</text>
</g>
<g id="graph5" class="cluster"><title>cluster_DMS_Filter_Mapping</title>
<polyline fill="none" stroke="gray" points="436,-691 866,-691 "/>
<path fill="none" stroke="gray" d="M866,-691C872,-691 878,-697 878,-703"/>
<polyline fill="none" stroke="gray" points="878,-703 878,-889 "/>
<path fill="none" stroke="gray" d="M878,-889C878,-895 872,-901 866,-901"/>
<polyline fill="none" stroke="gray" points="866,-901 436,-901 "/>
<path fill="none" stroke="gray" d="M436,-901C430,-901 424,-895 424,-889"/>
<polyline fill="none" stroke="gray" points="424,-889 424,-703 "/>
<path fill="none" stroke="gray" d="M424,-703C424,-697 430,-691 436,-691"/>
<text text-anchor="middle" x="651" y="-887.1" font-family="Times,serif" font-size="11.00" fill="gray">Mapping</text>
</g>
<g id="graph6" class="cluster"><title>cluster_DMS_Filter_Mapping_Loader</title>
<polyline fill="none" stroke="gray" points="482,-799 853,-799 "/>
<path fill="none" stroke="gray" d="M853,-799C859,-799 865,-805 865,-811"/>
<polyline fill="none" stroke="gray" points="865,-811 865,-860 "/>
<path fill="none" stroke="gray" d="M865,-860C865,-866 859,-872 853,-872"/>
<polyline fill="none" stroke="gray" points="853,-872 482,-872 "/>
<path fill="none" stroke="gray" d="M482,-872C476,-872 470,-866 470,-860"/>
<polyline fill="none" stroke="gray" points="470,-860 470,-811 "/>
<path fill="none" stroke="gray" d="M470,-811C470,-805 476,-799 482,-799"/>
<text text-anchor="middle" x="667.5" y="-858.1" font-family="Times,serif" font-size="11.00" fill="gray">Loader</text>
</g>
<g id="graph8" class="cluster"><title>cluster_DMS_Filter_Rules</title>
<polyline fill="none" stroke="gray" points="459,-178 843,-178 "/>
<path fill="none" stroke="gray" d="M843,-178C849,-178 855,-184 855,-190"/>
<polyline fill="none" stroke="gray" points="855,-190 855,-671 "/>
<path fill="none" stroke="gray" d="M855,-671C855,-677 849,-683 843,-683"/>
<polyline fill="none" stroke="gray" points="843,-683 459,-683 "/>
<path fill="none" stroke="gray" d="M459,-683C453,-683 447,-677 447,-671"/>
<polyline fill="none" stroke="gray" points="447,-671 447,-190 "/>
<path fill="none" stroke="gray" d="M447,-190C447,-184 453,-178 459,-178"/>
<text text-anchor="middle" x="651" y="-669.1" font-family="Times,serif" font-size="11.00" fill="gray">Rules</text>
</g>
<!-- _DMS_Filter_Exception_FilterException -->
<g id="node4" class="node"><title>_DMS_Filter_Exception_FilterException</title>
<a xlink:href="db_DMS_Filter_Exception_FilterException.html" xlink:title="FilterException" target="_parent">
<polygon fill="none" stroke="black" points="359.484,-980 244.516,-980 244.516,-944 359.484,-944 359.484,-980"/>
<text text-anchor="middle" x="302" y="-958.7" font-family="Courier New" font-size="11.00">FilterException</text>
</a>
</g>
<!-- _RuntimeException -->
<g id="node39" class="node"><title>_RuntimeException</title>
<ellipse fill="none" stroke="black" cx="86" cy="-962" rx="86.2754" ry="18"/>
<text text-anchor="middle" x="86" y="-957.8" font-family="Times,serif" font-size="14.00" fill="gray">\RuntimeException</text>
</g>
<!-- _DMS_Filter_Exception_FilterException&#45;&gt;_RuntimeException -->
<g id="edge14" class="edge"><title>_DMS_Filter_Exception_FilterException-&gt;_RuntimeException</title>
<path fill="none" stroke="black" d="M244.494,-962C225.466,-962 203.673,-962 182.489,-962"/>
<polygon fill="none" stroke="black" points="182.483,-958.5 172.483,-962 182.483,-965.5 182.483,-958.5"/>
</g>
<!-- _DMS_Filter_Exception_InvalidOptionsException -->
<g id="node5" class="node"><title>_DMS_Filter_Exception_InvalidOptionsException</title>
<a xlink:href="db_DMS_Filter_Exception_InvalidOptionsException.html" xlink:title="InvalidOptionsException" target="_parent">
<polygon fill="none" stroke="black" points="879.775,-1007 712.225,-1007 712.225,-971 879.775,-971 879.775,-1007"/>
<text text-anchor="middle" x="796" y="-985.7" font-family="Courier New" font-size="11.00">InvalidOptionsException</text>
</a>
</g>
<!-- _DMS_Filter_Exception_RuleOptionsException -->
<g id="node8" class="node"><title>_DMS_Filter_Exception_RuleOptionsException</title>
<a xlink:href="db_DMS_Filter_Exception_RuleOptionsException.html" xlink:title="RuleOptionsException" target="_parent">
<polygon fill="none" stroke="black" points="609.978,-1007 462.022,-1007 462.022,-971 609.978,-971 609.978,-1007"/>
<text text-anchor="middle" x="536" y="-985.7" font-family="Courier New" font-size="11.00">RuleOptionsException</text>
</a>
</g>
<!-- _DMS_Filter_Exception_InvalidOptionsException&#45;&gt;_DMS_Filter_Exception_RuleOptionsException -->
<g id="edge16" class="edge"><title>_DMS_Filter_Exception_InvalidOptionsException-&gt;_DMS_Filter_Exception_RuleOptionsException</title>
<path fill="none" stroke="black" d="M711.947,-989C682.694,-989 649.814,-989 620.523,-989"/>
<polygon fill="none" stroke="black" points="620.323,-985.5 610.323,-989 620.323,-992.5 620.323,-985.5"/>
</g>
<!-- _DMS_Filter_Exception_MissingOptionsException -->
<g id="node6" class="node"><title>_DMS_Filter_Exception_MissingOptionsException</title>
<a xlink:href="db_DMS_Filter_Exception_MissingOptionsException.html" xlink:title="MissingOptionsException" target="_parent">
<polygon fill="none" stroke="black" points="879.775,-953 712.225,-953 712.225,-917 879.775,-917 879.775,-953"/>
<text text-anchor="middle" x="796" y="-931.7" font-family="Courier New" font-size="11.00">MissingOptionsException</text>
</a>
</g>
<!-- _DMS_Filter_Exception_MissingOptionsException&#45;&gt;_DMS_Filter_Exception_RuleOptionsException -->
<g id="edge18" class="edge"><title>_DMS_Filter_Exception_MissingOptionsException-&gt;_DMS_Filter_Exception_RuleOptionsException</title>
<path fill="none" stroke="black" d="M711.947,-952.383C682.566,-958.533 649.527,-965.448 620.139,-971.599"/>
<polygon fill="none" stroke="black" points="619.394,-968.179 610.323,-973.653 620.828,-975.03 619.394,-968.179"/>
</g>
<!-- _DMS_Filter_Exception_RuleDefinitionException -->
<g id="node7" class="node"><title>_DMS_Filter_Exception_RuleDefinitionException</title>
<a xlink:href="db_DMS_Filter_Exception_RuleDefinitionException.html" xlink:title="RuleDefinitionException" target="_parent">
<polygon fill="none" stroke="black" points="619.775,-953 452.225,-953 452.225,-917 619.775,-917 619.775,-953"/>
<text text-anchor="middle" x="536" y="-931.7" font-family="Courier New" font-size="11.00">RuleDefinitionException</text>
</a>
</g>
<!-- _DMS_Filter_Exception_RuleDefinitionException&#45;&gt;_DMS_Filter_Exception_FilterException -->
<g id="edge20" class="edge"><title>_DMS_Filter_Exception_RuleDefinitionException-&gt;_DMS_Filter_Exception_FilterException</title>
<path fill="none" stroke="black" d="M451.898,-944.671C424.924,-947.811 395.363,-951.251 369.74,-954.233"/>
<polygon fill="none" stroke="black" points="369.288,-950.762 359.759,-955.394 370.097,-957.715 369.288,-950.762"/>
</g>
<!-- _DMS_Filter_Exception_RuleOptionsException&#45;&gt;_DMS_Filter_Exception_FilterException -->
<g id="edge22" class="edge"><title>_DMS_Filter_Exception_RuleOptionsException-&gt;_DMS_Filter_Exception_FilterException</title>
<path fill="none" stroke="black" d="M461.912,-980.494C432.328,-977.051 398.409,-973.104 369.526,-969.742"/>
<polygon fill="none" stroke="black" points="369.873,-966.259 359.535,-968.58 369.063,-973.212 369.873,-966.259"/>
</g>
<!-- _DMS_Filter_Mapping_Loader_AnnotationLoader -->
<g id="node11" class="node"><title>_DMS_Filter_Mapping_Loader_AnnotationLoader</title>
<a xlink:href="db_DMS_Filter_Mapping_Loader_AnnotationLoader.html" xlink:title="AnnotationLoader" target="_parent">
<polygon fill="none" stroke="black" points="856.583,-843 735.417,-843 735.417,-807 856.583,-807 856.583,-843"/>
<text text-anchor="middle" x="796" y="-821.7" font-family="Courier New" font-size="11.00">AnnotationLoader</text>
</a>
</g>
<!-- _DMS_Filter_Mapping_Loader_LoaderInterface -->
<g id="node12" class="node"><title>_DMS_Filter_Mapping_Loader_LoaderInterface</title>
<a xlink:href="db_DMS_Filter_Mapping_Loader_LoaderInterface.html" xlink:title="LoaderInterface" target="_parent">
<polygon fill="none" stroke="black" points="593.484,-843 478.516,-843 478.516,-807 593.484,-807 593.484,-843"/>
<text text-anchor="middle" x="536" y="-821.7" font-family="Courier New" font-size="11.00">LoaderInterface</text>
</a>
</g>
<!-- _DMS_Filter_Mapping_Loader_AnnotationLoader&#45;&gt;_DMS_Filter_Mapping_Loader_LoaderInterface -->
<g id="edge48" class="edge"><title>_DMS_Filter_Mapping_Loader_AnnotationLoader-&gt;_DMS_Filter_Mapping_Loader_LoaderInterface</title>
<path fill="none" stroke="black" stroke-dasharray="1,5" d="M735.161,-825C695.914,-825 644.539,-825 603.936,-825"/>
<polygon fill="none" stroke="black" points="603.859,-821.5 593.859,-825 603.859,-828.5 603.859,-821.5"/>
</g>
<!-- _DMS_Filter_Mapping_ClassMetadata -->
<g id="node13" class="node"><title>_DMS_Filter_Mapping_ClassMetadata</title>
<a xlink:href="db_DMS_Filter_Mapping_ClassMetadata.html" xlink:title="ClassMetadata" target="_parent">
<polygon fill="none" stroke="black" points="846.786,-789 745.214,-789 745.214,-753 846.786,-753 846.786,-789"/>
<text text-anchor="middle" x="796" y="-767.7" font-family="Courier New" font-size="11.00">ClassMetadata</text>
</a>
</g>
<!-- _DMS_Filter_Mapping_ClassMetadataInterface -->
<g id="node16" class="node"><title>_DMS_Filter_Mapping_ClassMetadataInterface</title>
<a xlink:href="db_DMS_Filter_Mapping_ClassMetadataInterface.html" xlink:title="ClassMetadataInterface" target="_parent">
<polygon fill="none" stroke="black" points="616.676,-789 455.324,-789 455.324,-753 616.676,-753 616.676,-789"/>
<text text-anchor="middle" x="536" y="-767.7" font-family="Courier New" font-size="11.00">ClassMetadataInterface</text>
</a>
</g>
<!-- _DMS_Filter_Mapping_ClassMetadata&#45;&gt;_DMS_Filter_Mapping_ClassMetadataInterface -->
<g id="edge44" class="edge"><title>_DMS_Filter_Mapping_ClassMetadata-&gt;_DMS_Filter_Mapping_ClassMetadataInterface</title>
<path fill="none" stroke="black" stroke-dasharray="1,5" d="M744.949,-771C711.45,-771 666.41,-771 626.813,-771"/>
<polygon fill="none" stroke="black" points="626.608,-767.5 616.608,-771 626.608,-774.5 626.608,-767.5"/>
</g>
<!-- _DMS_Filter_Mapping_ClassMetadataFactory -->
<g id="node14" class="node"><title>_DMS_Filter_Mapping_ClassMetadataFactory</title>
<a xlink:href="db_DMS_Filter_Mapping_ClassMetadataFactory.html" xlink:title="ClassMetadataFactory" target="_parent">
<polygon fill="none" stroke="black" points="869.978,-735 722.022,-735 722.022,-699 869.978,-699 869.978,-735"/>
<text text-anchor="middle" x="796" y="-713.7" font-family="Courier New" font-size="11.00">ClassMetadataFactory</text>
</a>
</g>
<!-- _DMS_Filter_Mapping_ClassMetadataFactoryInterface -->
<g id="node15" class="node"><title>_DMS_Filter_Mapping_ClassMetadataFactoryInterface</title>
<a xlink:href="db_DMS_Filter_Mapping_ClassMetadataFactoryInterface.html" xlink:title="ClassMetadataFactoryInterface" target="_parent">
<polygon fill="none" stroke="black" points="639.868,-735 432.132,-735 432.132,-699 639.868,-699 639.868,-735"/>
<text text-anchor="middle" x="536" y="-713.7" font-family="Courier New" font-size="11.00">ClassMetadataFactoryInterface</text>
</a>
</g>
<!-- _DMS_Filter_Mapping_ClassMetadataFactory&#45;&gt;_DMS_Filter_Mapping_ClassMetadataFactoryInterface -->
<g id="edge46" class="edge"><title>_DMS_Filter_Mapping_ClassMetadataFactory-&gt;_DMS_Filter_Mapping_ClassMetadataFactoryInterface</title>
<path fill="none" stroke="black" stroke-dasharray="1,5" d="M721.758,-717C699.368,-717 674.202,-717 649.821,-717"/>
<polygon fill="none" stroke="black" points="649.797,-713.5 639.797,-717 649.797,-720.5 649.797,-713.5"/>
</g>
<!-- _DMS_Filter_Rules_Alnum -->
<g id="node19" class="node"><title>_DMS_Filter_Rules_Alnum</title>
<a xlink:href="db_DMS_Filter_Rules_Alnum.html" xlink:title="Alnum" target="_parent">
<polygon fill="none" stroke="black" points="823,-654 769,-654 769,-618 823,-618 823,-654"/>
<text text-anchor="middle" x="796" y="-632.7" font-family="Courier New" font-size="11.00">Alnum</text>
</a>
</g>
<!-- _DMS_Filter_Rules_Rule -->
<g id="node23" class="node"><title>_DMS_Filter_Rules_Rule</title>
<a xlink:href="db_DMS_Filter_Rules_Rule.html" xlink:title="&lt;I&gt;_DMS_Filter_Rules_Rule&lt;/I&gt;" target="_parent">
<polygon fill="none" stroke="black" points="617,-438 455,-438 455,-402 617,-402 617,-438"/>
<text text-anchor="start" x="463.5" y="-417.1" font-family="Courier New" font-size="11.00">_DMS_Filter_Rules_Rule</text>
</a>
</g>
<!-- _DMS_Filter_Rules_Alnum&#45;&gt;_DMS_Filter_Rules_Rule -->
<g id="edge24" class="edge"><title>_DMS_Filter_Rules_Alnum-&gt;_DMS_Filter_Rules_Rule</title>
<path fill="none" stroke="black" d="M768.828,-631.085C751.699,-627.032 729.359,-620.106 712,-609 643.042,-564.88 583.217,-487.211 554.727,-446.537"/>
<polygon fill="none" stroke="black" points="557.536,-444.445 548.971,-438.209 551.778,-448.425 557.536,-444.445"/>
</g>
<!-- Boolean -->
<g id="node20" class="node"><title>Boolean</title>
<a xlink:href="db_DMS_Filter_Rules_Boolean.html" xlink:title="Boolean" target="_parent">
<polygon fill="none" stroke="black" points="827.193,-600 764.807,-600 764.807,-564 827.193,-564 827.193,-600"/>
<text text-anchor="middle" x="796" y="-578.7" font-family="Courier New" font-size="11.00">Boolean</text>
</a>
</g>
<!-- Boolean&#45;&gt;_DMS_Filter_Rules_Rule -->
<g id="edge26" class="edge"><title>Boolean-&gt;_DMS_Filter_Rules_Rule</title>
<path fill="none" stroke="black" d="M764.808,-574.865C748.608,-570.382 728.616,-563.773 712,-555 654.442,-524.61 596.329,-475.223 563.666,-445.356"/>
<polygon fill="none" stroke="black" points="565.646,-442.421 555.926,-438.207 560.897,-447.563 565.646,-442.421"/>
</g>
<!-- Float -->
<g id="node21" class="node"><title>Float</title>
<a xlink:href="db_DMS_Filter_Rules_Float.html" xlink:title="Float" target="_parent">
<polygon fill="none" stroke="black" points="823,-546 769,-546 769,-510 823,-510 823,-546"/>
<text text-anchor="middle" x="796" y="-524.7" font-family="Courier New" font-size="11.00">Float</text>
</a>
</g>
<!-- Float&#45;&gt;_DMS_Filter_Rules_Rule -->
<g id="edge28" class="edge"><title>Float-&gt;_DMS_Filter_Rules_Rule</title>
<path fill="none" stroke="black" d="M768.923,-520.39C752.43,-515.363 730.76,-508.363 712,-501 666.8,-483.26 616.643,-459.622 581.656,-442.462"/>
<polygon fill="none" stroke="black" points="583.171,-439.307 572.654,-438.026 580.077,-445.586 583.171,-439.307"/>
</g>
<!-- Int -->
<g id="node22" class="node"><title>Int</title>
<a xlink:href="db_DMS_Filter_Rules_Int.html" xlink:title="Int" target="_parent">
<polygon fill="none" stroke="black" points="823,-492 769,-492 769,-456 823,-456 823,-492"/>
<text text-anchor="middle" x="796" y="-470.7" font-family="Courier New" font-size="11.00">Int</text>
</a>
</g>
<!-- Int&#45;&gt;_DMS_Filter_Rules_Rule -->
<g id="edge30" class="edge"><title>Int-&gt;_DMS_Filter_Rules_Rule</title>
<path fill="none" stroke="black" d="M768.842,-468.525C735.754,-461.6 677.051,-449.313 626.996,-438.836"/>
<polygon fill="none" stroke="black" points="627.615,-435.39 617.11,-436.767 626.181,-442.242 627.615,-435.39"/>
</g>
<!-- _DMS_Filter_Rules_StripNewlines -->
<g id="node24" class="node"><title>_DMS_Filter_Rules_StripNewlines</title>
<a xlink:href="db_DMS_Filter_Rules_StripNewlines.html" xlink:title="StripNewlines" target="_parent">
<polygon fill="none" stroke="black" points="846.786,-438 745.214,-438 745.214,-402 846.786,-402 846.786,-438"/>
<text text-anchor="middle" x="796" y="-416.7" font-family="Courier New" font-size="11.00">StripNewlines</text>
</a>
</g>
<!-- _DMS_Filter_Rules_StripNewlines&#45;&gt;_DMS_Filter_Rules_Rule -->
<g id="edge32" class="edge"><title>_DMS_Filter_Rules_StripNewlines-&gt;_DMS_Filter_Rules_Rule</title>
<path fill="none" stroke="black" d="M744.949,-420C711.585,-420 666.773,-420 627.292,-420"/>
<polygon fill="none" stroke="black" points="627.114,-416.5 617.113,-420 627.113,-423.5 627.114,-416.5"/>
</g>
<!-- _DMS_Filter_Rules_StripTags -->
<g id="node25" class="node"><title>_DMS_Filter_Rules_StripTags</title>
<a xlink:href="db_DMS_Filter_Rules_StripTags.html" xlink:title="StripTags" target="_parent">
<polygon fill="none" stroke="black" points="833.891,-384 758.109,-384 758.109,-348 833.891,-348 833.891,-384"/>
<text text-anchor="middle" x="796" y="-362.7" font-family="Courier New" font-size="11.00">StripTags</text>
</a>
</g>
<!-- _DMS_Filter_Rules_StripTags&#45;&gt;_DMS_Filter_Rules_Rule -->
<g id="edge34" class="edge"><title>_DMS_Filter_Rules_StripTags-&gt;_DMS_Filter_Rules_Rule</title>
<path fill="none" stroke="black" d="M758.035,-373.737C724.031,-380.854 672.226,-391.697 627.314,-401.097"/>
<polygon fill="none" stroke="black" points="626.324,-397.728 617.253,-403.203 627.758,-404.58 626.324,-397.728"/>
</g>
<!-- _DMS_Filter_Rules_ToLower -->
<g id="node26" class="node"><title>_DMS_Filter_Rules_ToLower</title>
<a xlink:href="db_DMS_Filter_Rules_ToLower.html" xlink:title="ToLower" target="_parent">
<polygon fill="none" stroke="black" points="827.193,-330 764.807,-330 764.807,-294 827.193,-294 827.193,-330"/>
<text text-anchor="middle" x="796" y="-308.7" font-family="Courier New" font-size="11.00">ToLower</text>
</a>
</g>
<!-- _DMS_Filter_Rules_ToLower&#45;&gt;_DMS_Filter_Rules_Rule -->
<g id="edge36" class="edge"><title>_DMS_Filter_Rules_ToLower-&gt;_DMS_Filter_Rules_Rule</title>
<path fill="none" stroke="black" d="M764.704,-318.941C748.474,-323.367 728.485,-329.984 712,-339 675.703,-358.853 677.281,-380.062 640,-398 635.695,-400.071 631.197,-401.949 626.588,-403.651"/>
<polygon fill="none" stroke="black" points="625.347,-400.376 617.002,-406.903 627.596,-407.005 625.347,-400.376"/>
</g>
<!-- _DMS_Filter_Rules_ToUpper -->
<g id="node27" class="node"><title>_DMS_Filter_Rules_ToUpper</title>
<a xlink:href="db_DMS_Filter_Rules_ToUpper.html" xlink:title="ToUpper" target="_parent">
<polygon fill="none" stroke="black" points="827.193,-276 764.807,-276 764.807,-240 827.193,-240 827.193,-276"/>
<text text-anchor="middle" x="796" y="-254.7" font-family="Courier New" font-size="11.00">ToUpper</text>
</a>
</g>
<!-- _DMS_Filter_Rules_ToUpper&#45;&gt;_DMS_Filter_Rules_Rule -->
<g id="edge38" class="edge"><title>_DMS_Filter_Rules_ToUpper-&gt;_DMS_Filter_Rules_Rule</title>
<path fill="none" stroke="black" d="M764.604,-262.682C747.761,-266.479 727.215,-273.216 712,-285 664.919,-321.464 688.914,-364.034 640,-398 635.744,-400.955 631.169,-403.526 626.396,-405.761"/>
<polygon fill="none" stroke="black" points="624.902,-402.591 617.008,-409.658 627.586,-409.056 624.902,-402.591"/>
</g>
<!-- _DMS_Filter_Rules_Trim -->
<g id="node28" class="node"><title>_DMS_Filter_Rules_Trim</title>
<a xlink:href="db_DMS_Filter_Rules_Trim.html" xlink:title="Trim" target="_parent">
<polygon fill="none" stroke="black" points="823,-222 769,-222 769,-186 823,-186 823,-222"/>
<text text-anchor="middle" x="796" y="-200.7" font-family="Courier New" font-size="11.00">Trim</text>
</a>
</g>
<!-- _DMS_Filter_Rules_Trim&#45;&gt;_DMS_Filter_Rules_Rule -->
<g id="edge40" class="edge"><title>_DMS_Filter_Rules_Trim-&gt;_DMS_Filter_Rules_Rule</title>
<path fill="none" stroke="black" d="M768.976,-206.805C751.032,-209.974 727.679,-216.709 712,-231 652.264,-285.448 702.487,-346.733 640,-398 635.865,-401.392 631.33,-404.297 626.541,-406.781"/>
<polygon fill="none" stroke="black" points="624.735,-403.756 617.056,-411.056 627.611,-410.137 624.735,-403.756"/>
</g>
<!-- _DMS_Filter_Filter -->
<g id="node29" class="node"><title>_DMS_Filter_Filter</title>
<a xlink:href="db_DMS_Filter_Filter.html" xlink:title="Filter" target="_parent">
<polygon fill="none" stroke="black" points="823.595,-168 768.405,-168 768.405,-132 823.595,-132 823.595,-168"/>
<text text-anchor="middle" x="796" y="-146.7" font-family="Courier New" font-size="11.00">Filter</text>
</a>
</g>
<!-- _DMS_Filter_FilterInterface -->
<g id="node30" class="node"><title>_DMS_Filter_FilterInterface</title>
<a xlink:href="db_DMS_Filter_FilterInterface.html" xlink:title="FilterInterface" target="_parent">
<polygon fill="none" stroke="black" points="593.484,-168 478.516,-168 478.516,-132 593.484,-132 593.484,-168"/>
<text text-anchor="middle" x="536" y="-146.7" font-family="Courier New" font-size="11.00">FilterInterface</text>
</a>
</g>
<!-- _DMS_Filter_Filter&#45;&gt;_DMS_Filter_FilterInterface -->
<g id="edge42" class="edge"><title>_DMS_Filter_Filter-&gt;_DMS_Filter_FilterInterface</title>
<path fill="none" stroke="black" stroke-dasharray="1,5" d="M768.361,-150C729.838,-150 657.324,-150 603.705,-150"/>
<polygon fill="none" stroke="black" points="603.588,-146.5 593.588,-150 603.588,-153.5 603.588,-146.5"/>
</g>
<!-- _DMS_Filter_ObjectWalker -->
<g id="node31" class="node"><title>_DMS_Filter_ObjectWalker</title>
<a xlink:href="db_DMS_Filter_ObjectWalker.html" xlink:title="ObjectWalker" target="_parent">
<polygon fill="none" stroke="black" points="843.687,-114 748.313,-114 748.313,-78 843.687,-78 843.687,-114"/>
<text text-anchor="middle" x="796" y="-92.7" font-family="Courier New" font-size="11.00">ObjectWalker</text>
</a>
</g>
<!-- _DMS_Filter_Version -->
<g id="node32" class="node"><title>_DMS_Filter_Version</title>
<a xlink:href="db_DMS_Filter_Version.html" xlink:title="Version" target="_parent">
<polygon fill="none" stroke="black" points="827.193,-60 764.807,-60 764.807,-24 827.193,-24 827.193,-60"/>
<text text-anchor="middle" x="796" y="-38.7" font-family="Courier New" font-size="11.00">Version</text>
</a>
</g>
</g>
<script xlink:href="js/SVGPan.js"/></svg>
